<svg width="50" height="51" viewBox="0 0 50 51" fill="none" xmlns="http://www.w3.org/2000/svg">
<path d="M48.5144 21.018L40.2727 29.2815L35.5691 24.5569L39.124 21.018C39.4069 20.6866 39.3878 20.1931 39.0801 19.8845C38.7727 19.5764 38.2805 19.5572 37.95 19.8409L34.3871 23.3717L32.0391 21.0094L40.2727 12.7459C40.5955 12.4203 40.5955 11.8945 40.2727 11.5689C39.9479 11.2452 39.4235 11.2452 39.0988 11.5689L30.266 20.4254C30.1083 20.5819 30.0197 20.7954 30.0197 21.018C30.0197 21.2405 30.1083 21.4537 30.266 21.6106L31.4481 22.7872L30.266 23.9729C28.8685 22.5704 26.6799 22.3471 25.0295 23.4385L24.3803 22.7872C23.6003 22.0072 22.5434 21.569 21.4414 21.5686C20.9207 21.5686 20.404 21.6648 19.9178 21.8527L18.4943 20.4254L19.0853 19.8409C19.243 19.684 19.3317 19.4708 19.3317 19.2483C19.3317 19.0258 19.243 18.8122 19.0853 18.6557L10.8188 10.3922C10.4924 10.067 9.96477 10.069 9.64079 10.3963C9.31641 10.7236 9.31844 11.2522 9.64486 11.5774L17.2955 19.2483L16.7045 19.8324L12.542 23.9643L9.60339 21.0094C9.44689 20.8513 9.23429 20.7624 9.01235 20.7624C8.7904 20.7624 8.5774 20.8513 8.4213 21.0094C8.09814 21.3351 8.09814 21.8608 8.4213 22.1865L11.368 25.1414L10.1859 26.318L9.07861 27.5452L1.42794 19.8409C1.27185 19.6828 1.05884 19.5939 0.836898 19.5939C0.614951 19.5939 0.402354 19.6828 0.245853 19.8409C-0.0769053 20.1666 -0.0769053 20.6923 0.245853 21.018L8.48756 29.2815C8.64488 29.4376 8.85747 29.5248 9.07861 29.5236C9.30015 29.5248 9.51274 29.4376 9.67006 29.2815L10.8188 28.1044L11.9924 29.2815C10.3676 30.9113 10.3676 33.5528 11.9924 35.1827L13.5578 36.727C13.7139 36.8851 13.9269 36.974 14.1488 36.974C14.3708 36.974 14.5834 36.8851 14.7399 36.727C15.0626 36.4013 15.0626 35.8756 14.7399 35.5499L13.1997 34.006C12.7293 33.5361 12.4651 32.8978 12.4651 32.2323C12.4651 31.5663 12.7293 30.9281 13.1997 30.4585L13.7826 29.8741L19.6764 23.9643C20.6658 23.0232 22.217 23.0232 23.2064 23.9643L28.501 29.2729C28.7839 29.6043 28.7648 30.0978 28.4575 30.4064C28.1498 30.7145 27.6575 30.7336 27.3274 30.45L23.4893 26.6021C23.1609 26.2748 22.6296 26.2765 22.3031 26.6062C21.9767 26.9359 21.9784 27.4682 22.3072 27.7955L26.1449 31.6438C26.8587 32.3647 27.936 32.5824 28.8721 32.1944C29.8087 31.8064 30.4184 30.8897 30.416 29.8741C30.4152 29.2101 30.1518 28.5735 29.6831 28.1044L26.2535 24.6653C27.2096 24.2309 28.3331 24.4224 29.092 25.1495L36.1602 32.2364C36.6256 32.7067 36.8862 33.3433 36.8846 34.006C36.8862 34.6687 36.6256 35.305 36.1602 35.7753L33.8041 38.1376L31.39 40.55L29.6831 42.2695L24.9714 46.9937C24.6466 47.3173 24.1222 47.3173 23.7974 46.9937C23.4747 46.6684 23.4747 46.1427 23.7974 45.817L29.1339 40.4913C29.3713 40.2875 29.475 39.9672 29.4018 39.6623C29.3286 39.3574 29.0912 39.1194 28.7872 39.0461C28.4827 38.9727 28.1636 39.0762 27.9599 39.3146L22.6568 44.6233C22.3267 44.9069 21.8345 44.8878 21.5267 44.5796C21.2194 44.2711 21.2003 43.7775 21.4832 43.4462L26.7779 38.1376C26.9356 37.9811 27.0242 37.7675 27.0242 37.545C27.0242 37.3224 26.9356 37.1093 26.7779 36.9524C26.4531 36.6288 25.9287 36.6288 25.6039 36.9524L20.3007 42.2695C19.9764 42.5931 19.452 42.5931 19.1272 42.2695C18.9695 42.1126 18.8809 41.8995 18.8809 41.6769C18.8809 41.4544 18.9695 41.2408 19.1272 41.0843L24.4218 35.7753C24.5795 35.6188 24.6681 35.4052 24.6681 35.1827C24.6681 34.9602 24.5795 34.747 24.4218 34.5901C24.097 34.2665 23.5726 34.2665 23.2478 34.5901L17.9451 39.9073C17.6187 40.2321 17.0911 40.2305 16.7671 39.9032C16.4427 39.5759 16.4447 39.0469 16.7711 38.722L23.173 32.3114C23.4995 31.9841 23.4995 31.4534 23.173 31.1261C22.8466 30.7989 22.3174 30.7989 21.991 31.1261L15.5557 37.5617C14.5818 38.5394 14.5818 40.1233 15.5557 41.101C15.9858 41.5412 16.565 41.8037 17.1789 41.8355C17.2532 43.1063 18.267 44.1191 19.5349 44.1892C19.6052 45.4637 20.6203 46.481 21.891 46.5515C21.9149 47.1791 22.1735 47.7754 22.6153 48.2209C23.3657 48.9716 24.5072 49.166 25.4624 48.7051L26.1449 49.3979C26.8461 50.1014 27.8965 50.3223 28.8209 49.9604C29.7449 49.5985 30.3676 48.7226 30.4075 47.7285C31.0347 47.7094 31.631 47.4493 32.0725 47.0022C32.505 46.567 32.7627 45.9878 32.7968 45.3744C34.068 45.3043 35.0826 44.2866 35.1529 43.0121C36.1443 42.9726 37.0179 42.3478 37.3789 41.4214C37.7402 40.4946 37.5199 39.4418 36.8179 38.7387L36.2269 38.1543L37.4089 36.9691C38.187 36.1869 38.624 35.1273 38.6244 34.0223C38.6049 33.1962 38.341 32.3945 37.8667 31.7187L39.124 30.4585L39.715 31.0511C40.0398 31.3748 40.5642 31.3748 40.889 31.0511L49.6965 22.1946C50.0193 21.8694 50.0193 21.3432 49.6965 21.018C49.5404 20.8598 49.3274 20.771 49.1055 20.771C48.8835 20.771 48.6709 20.8598 48.5144 21.018ZM12.0176 26.9192L17.3207 21.6106L18.4943 22.7872L13.1997 28.1044L12.0176 26.9192ZM28.501 48.1707C28.1762 48.4944 27.6518 48.4944 27.3274 48.1707L26.7364 47.5781L27.9185 46.4011L28.501 46.9855C28.6587 47.142 28.7473 47.3556 28.7473 47.5781C28.7473 47.8007 28.6587 48.0142 28.501 48.1707ZM30.857 45.8085C30.5323 46.1321 30.0079 46.1321 29.6831 45.8085L29.1339 45.2159L29.725 44.6233L30.3075 44.0388L30.8989 44.6233C31.0562 44.7802 31.1448 44.9933 31.1448 45.2159C31.1448 45.4384 31.0562 45.652 30.8989 45.8085H30.857ZM33.2131 43.4462C32.8883 43.7698 32.3639 43.7698 32.0391 43.4462L31.4481 42.8536L32.622 41.6769L33.2131 42.2695C33.5359 42.5952 33.5359 43.1209 33.2131 43.4462ZM35.5691 41.0843C35.4126 41.242 35.2 41.3309 34.9781 41.3309C34.7562 41.3309 34.5431 41.242 34.3871 41.0843L33.8041 40.4913L34.9614 39.3146L35.5525 39.9073C35.8797 40.228 35.8874 40.7542 35.5691 41.0843ZM36.7427 30.4585L31.4481 25.1495L32.622 23.9729L37.9252 29.2815L36.7427 30.4585Z" fill="#31C6E8"/>
<path d="M15.8139 13.3553H34.129C34.5888 13.3553 34.9615 12.9815 34.9615 12.5206V0.834705C34.9615 0.373742 34.5888 0 34.129 0H15.8139C15.3542 0 14.9814 0.373742 14.9814 0.834705V12.5206C14.9814 12.9815 15.3542 13.3553 15.8139 13.3553ZM16.6465 10.0165C17.5659 10.0165 18.3115 10.7639 18.3115 11.6859H16.6465V10.0165ZM33.2965 11.6859H31.6315C31.6315 10.7639 32.377 10.0165 33.2965 10.0165V11.6859ZM33.2965 3.33882C32.377 3.33882 31.6315 2.59134 31.6315 1.66941H33.2965V3.33882ZM33.2965 5.00823V8.34705C31.4571 8.34705 29.9665 9.84202 29.9665 11.6859H19.9765C19.9765 9.84202 18.4854 8.34705 16.6465 8.34705V5.00823C18.4854 5.00823 19.9765 3.51326 19.9765 1.66941H29.9665C29.9665 3.51326 31.4571 5.00823 33.2965 5.00823ZM16.6465 1.66941H18.3115C18.3115 2.59134 17.5659 3.33882 16.6465 3.33882V1.66941Z" fill="#31e89f"/>
<path d="M24.9713 10.0164C26.8102 10.0164 28.3013 8.52148 28.3013 6.67763C28.3013 4.83378 26.8102 3.33881 24.9713 3.33881C23.1319 3.33881 21.6412 4.83378 21.6412 6.67763C21.6412 8.52148 23.1319 10.0164 24.9713 10.0164ZM24.9713 5.00822C25.8907 5.00822 26.6363 5.7557 26.6363 6.67763C26.6363 7.59955 25.8907 8.34704 24.9713 8.34704C24.0518 8.34704 23.3062 7.59955 23.3062 6.67763C23.3062 5.7557 24.0518 5.00822 24.9713 5.00822Z" fill="#31e89f"/>
<path d="M31.6313 6.6776C31.6313 7.13856 31.2586 7.51231 30.7988 7.51231C30.3391 7.51231 29.9663 7.13856 29.9663 6.6776C29.9663 6.21664 30.3391 5.8429 30.7988 5.8429C31.2586 5.8429 31.6313 6.21664 31.6313 6.6776Z" fill="#31C6E8"/>
<path d="M19.9763 6.6776C19.9763 7.13856 19.6035 7.51231 19.1438 7.51231C18.684 7.51231 18.3113 7.13856 18.3113 6.6776C18.3113 6.21664 18.684 5.8429 19.1438 5.8429C19.6035 5.8429 19.9763 6.21664 19.9763 6.6776Z" fill="#31C6E8"/>
<path d="M49.805 5.38396L46.475 0.375729C46.3202 0.144636 46.0612 0.00646973 45.784 0.00646973C45.5068 0.00646973 45.2474 0.144636 45.0929 0.375729L41.7629 5.38396C41.6719 5.51968 41.6227 5.67945 41.6215 5.84288V9.1817C41.6215 9.64267 41.9942 10.0164 42.454 10.0164C42.9137 10.0164 43.2865 9.64267 43.2865 9.1817V6.09313L45.784 2.33696L48.2815 6.09313V15.0246C48.2815 15.4856 48.6543 15.8593 49.114 15.8593C49.5738 15.8593 49.9465 15.4856 49.9465 15.0246V5.84288C49.9453 5.67945 49.8961 5.51968 49.805 5.38396Z" fill="#31C6E8"/>
<path d="M46.6166 11.6858V6.6776C46.6166 6.21664 46.2438 5.8429 45.784 5.8429C45.3243 5.8429 44.9515 6.21664 44.9515 6.6776V11.6858C44.9515 12.1468 45.3243 12.5205 45.784 12.5205C46.2438 12.5205 46.6166 12.1468 46.6166 11.6858Z" fill="#31C6E8"/>
<path d="M0.828736 7.51236H1.66124V17.5288C1.66124 17.9898 2.034 18.3635 2.49374 18.3635C2.95349 18.3635 3.32625 17.9898 3.32625 17.5288V6.67765C3.32625 6.21669 2.95349 5.84295 2.49374 5.84295H2.44375L4.99126 2.27059L7.53877 5.84295H7.48877C7.02902 5.84295 6.65626 6.21669 6.65626 6.67765V8.34706C6.65626 8.80802 7.02902 9.18177 7.48877 9.18177C7.94852 9.18177 8.32127 8.80802 8.32127 8.34706V7.51236H9.15378C9.46475 7.51073 9.74889 7.33588 9.89075 7.05832C10.0326 6.78117 10.0082 6.44737 9.82815 6.19346L5.66563 0.350522C5.50873 0.133695 5.25832 0.00531006 4.99126 0.00531006C4.72419 0.00531006 4.47338 0.133695 4.31688 0.350522L0.154359 6.19346C-0.0261248 6.44737 -0.0501081 6.78117 0.0917591 7.05832C0.233626 7.33588 0.517767 7.51073 0.828736 7.51236Z" fill="#31C6E8"/>
<path d="M4.99121 11.6858V14.1899C4.99121 14.6509 5.36397 15.0247 5.82372 15.0247C6.28346 15.0247 6.65622 14.6509 6.65622 14.1899V11.6858C6.65622 11.2249 6.28346 10.8511 5.82372 10.8511C5.36397 10.8511 4.99121 11.2249 4.99121 11.6858Z" fill="#31C6E8"/>
</svg>
