<svg width="50" height="51" viewBox="0 0 50 51" fill="none" xmlns="http://www.w3.org/2000/svg">
<path d="M48.5144 21.5203L40.2727 29.7838L35.5691 25.0592L39.124 21.5203C39.4069 21.1889 39.3878 20.6954 39.0801 20.3868C38.7727 20.0787 38.2805 20.0596 37.95 20.3432L34.3871 23.874L32.0391 21.5117L40.2727 13.2482C40.5955 12.9226 40.5955 12.3968 40.2727 12.0712C39.9479 11.7476 39.4235 11.7476 39.0988 12.0712L30.266 20.9277C30.1083 21.0842 30.0197 21.2978 30.0197 21.5203C30.0197 21.7428 30.1083 21.956 30.266 22.1129L31.4481 23.2896L30.266 24.4752C28.8685 23.0727 26.6799 22.8494 25.0295 23.9409L24.3803 23.2896C23.6003 22.5095 22.5434 22.0713 21.4414 22.0709C20.9207 22.0709 20.404 22.1671 19.9178 22.355L18.4943 20.9277L19.0853 20.3432C19.243 20.1863 19.3317 19.9732 19.3317 19.7506C19.3317 19.5281 19.243 19.3145 19.0853 19.158L10.8188 10.8945C10.4924 10.5693 9.96477 10.5713 9.64079 10.8986C9.31641 11.2259 9.31844 11.7545 9.64486 12.0797L17.2955 19.7506L16.7045 20.3347L12.542 24.4666L9.60339 21.5117C9.44689 21.3536 9.23429 21.2647 9.01235 21.2647C8.7904 21.2647 8.5774 21.3536 8.4213 21.5117C8.09814 21.8374 8.09814 22.3632 8.4213 22.6888L11.368 25.6437L10.1859 26.8203L9.07861 28.0475L1.42794 20.3432C1.27185 20.1851 1.05884 20.0962 0.836898 20.0962C0.614951 20.0962 0.402354 20.1851 0.245853 20.3432C-0.0769053 20.6689 -0.0769053 21.1946 0.245853 21.5203L8.48756 29.7838C8.64488 29.9399 8.85747 30.0271 9.07861 30.0259C9.30015 30.0271 9.51274 29.9399 9.67006 29.7838L10.8188 28.6067L11.9924 29.7838C10.3676 31.4137 10.3676 34.0551 11.9924 35.685L13.5578 37.2293C13.7139 37.3874 13.9269 37.4763 14.1488 37.4763C14.3708 37.4763 14.5834 37.3874 14.7399 37.2293C15.0626 36.9036 15.0626 36.3779 14.7399 36.0522L13.1997 34.5084C12.7293 34.0384 12.4651 33.4002 12.4651 32.7346C12.4651 32.0686 12.7293 31.4304 13.1997 30.9609L13.7826 30.3764L19.6764 24.4666C20.6658 23.5255 22.217 23.5255 23.2064 24.4666L28.501 29.7752C28.7839 30.1066 28.7648 30.6002 28.4575 30.9087C28.1498 31.2168 27.6575 31.236 27.3274 30.9523L23.4893 27.1044C23.1609 26.7771 22.6296 26.7788 22.3031 27.1085C21.9767 27.4382 21.9784 27.9705 22.3072 28.2978L26.1449 32.1461C26.8587 32.8671 27.936 33.0847 28.8721 32.6967C29.8087 32.3087 30.4184 31.3921 30.416 30.3764C30.4152 29.7125 30.1518 29.0758 29.6831 28.6067L26.2535 25.1676C27.2096 24.7332 28.3331 24.9247 29.092 25.6518L36.1602 32.7387C36.6256 33.209 36.8862 33.8456 36.8846 34.5084C36.8862 35.1711 36.6256 35.8073 36.1602 36.2776L33.8041 38.6399L31.39 41.0523L29.6831 42.7719L24.9714 47.496C24.6466 47.8196 24.1222 47.8196 23.7974 47.496C23.4747 47.1708 23.4747 46.645 23.7974 46.3193L29.1339 40.9936C29.3713 40.7898 29.475 40.4695 29.4018 40.1646C29.3286 39.8598 29.0912 39.6217 28.7872 39.5484C28.4827 39.475 28.1636 39.5785 27.9599 39.817L22.6568 45.1256C22.3267 45.4092 21.8345 45.3901 21.5267 45.082C21.2194 44.7734 21.2003 44.2799 21.4832 43.9485L26.7779 38.6399C26.9356 38.4834 27.0242 38.2698 27.0242 38.0473C27.0242 37.8248 26.9356 37.6116 26.7779 37.4547C26.4531 37.1311 25.9287 37.1311 25.6039 37.4547L20.3007 42.7719C19.9764 43.0955 19.452 43.0955 19.1272 42.7719C18.9695 42.6149 18.8809 42.4018 18.8809 42.1792C18.8809 41.9567 18.9695 41.7431 19.1272 41.5866L24.4218 36.2776C24.5795 36.1211 24.6681 35.9075 24.6681 35.685C24.6681 35.4625 24.5795 35.2493 24.4218 35.0924C24.097 34.7688 23.5726 34.7688 23.2478 35.0924L17.9451 40.4096C17.6187 40.7344 17.0911 40.7328 16.7671 40.4055C16.4427 40.0782 16.4447 39.5492 16.7711 39.2244L23.173 32.8137C23.4995 32.4864 23.4995 31.9557 23.173 31.6285C22.8466 31.3012 22.3174 31.3012 21.991 31.6285L15.5557 38.064C14.5818 39.0418 14.5818 40.6256 15.5557 41.6033C15.9858 42.0435 16.565 42.306 17.1789 42.3378C17.2532 43.6086 18.267 44.6214 19.5349 44.6915C19.6052 45.966 20.6203 46.9833 21.891 47.0538C21.9149 47.6814 22.1735 48.2777 22.6153 48.7232C23.3657 49.4739 24.5072 49.6684 25.4624 49.2074L26.1449 49.9003C26.8461 50.6037 27.8965 50.8246 28.8209 50.4627C29.7449 50.1008 30.3676 49.2249 30.4075 48.2309C31.0347 48.2117 31.631 47.9517 32.0725 47.5046C32.505 47.0693 32.7627 46.4901 32.7968 45.8767C34.068 45.8066 35.0826 44.7889 35.1529 43.5144C36.1443 43.4749 37.0179 42.8501 37.3789 41.9237C37.7402 40.9969 37.5199 39.9441 36.8179 39.2411L36.2269 38.6566L37.4089 37.4714C38.187 36.6893 38.624 35.6296 38.6244 34.5247C38.6049 33.6985 38.341 32.8968 37.8667 32.2211L39.124 30.9609L39.715 31.5535C40.0398 31.8771 40.5642 31.8771 40.889 31.5535L49.6965 22.697C50.0193 22.3717 50.0193 21.8455 49.6965 21.5203C49.5404 21.3622 49.3274 21.2733 49.1055 21.2733C48.8835 21.2733 48.6709 21.3622 48.5144 21.5203V21.5203ZM12.0176 27.4215L17.3207 22.1129L18.4943 23.2896L13.1997 28.6067L12.0176 27.4215ZM28.501 48.6731C28.1762 48.9967 27.6518 48.9967 27.3274 48.6731L26.7364 48.0805L27.9185 46.9034L28.501 47.4879C28.6587 47.6444 28.7473 47.8579 28.7473 48.0805C28.7473 48.303 28.6587 48.5166 28.501 48.6731ZM30.857 46.3108C30.5323 46.6344 30.0079 46.6344 29.6831 46.3108L29.1339 45.7182L29.725 45.1256L30.3075 44.5411L30.8989 45.1256C31.0562 45.2825 31.1448 45.4956 31.1448 45.7182C31.1448 45.9407 31.0562 46.1543 30.8989 46.3108H30.857ZM33.2131 43.9485C32.8883 44.2721 32.3639 44.2721 32.0391 43.9485L31.4481 43.3559L32.622 42.1792L33.2131 42.7719C33.5359 43.0975 33.5359 43.6233 33.2131 43.9485V43.9485ZM35.5691 41.5866C35.4126 41.7444 35.2 41.8332 34.9781 41.8332C34.7562 41.8332 34.5431 41.7444 34.3871 41.5866L33.8041 40.9936L34.9614 39.817L35.5525 40.4096C35.8797 40.7303 35.8874 41.2565 35.5691 41.5866V41.5866ZM36.7427 30.9609L31.4481 25.6518L32.622 24.4752L37.9252 29.7838L36.7427 30.9609Z" fill="#FFBB01"/>
<path d="M15.8139 13.8576H34.129C34.5888 13.8576 34.9615 13.4839 34.9615 13.0229V1.33702C34.9615 0.876062 34.5888 0.502319 34.129 0.502319H15.8139C15.3542 0.502319 14.9814 0.876062 14.9814 1.33702V13.0229C14.9814 13.4839 15.3542 13.8576 15.8139 13.8576ZM16.6465 10.5188C17.5659 10.5188 18.3115 11.2663 18.3115 12.1882H16.6465V10.5188ZM33.2965 12.1882H31.6315C31.6315 11.2663 32.377 10.5188 33.2965 10.5188V12.1882ZM33.2965 3.84114C32.377 3.84114 31.6315 3.09365 31.6315 2.17173H33.2965V3.84114ZM33.2965 5.51055V8.84937C31.4571 8.84937 29.9665 10.3443 29.9665 12.1882H19.9765C19.9765 10.3443 18.4854 8.84937 16.6465 8.84937V5.51055C18.4854 5.51055 19.9765 4.01558 19.9765 2.17173H29.9665C29.9665 4.01558 31.4571 5.51055 33.2965 5.51055ZM16.6465 2.17173H18.3115C18.3115 3.09365 17.5659 3.84114 16.6465 3.84114V2.17173Z" fill="#FFBB01"/>
<path d="M24.9713 10.5188C26.8102 10.5188 28.3013 9.0238 28.3013 7.17995C28.3013 5.3361 26.8102 3.84113 24.9713 3.84113C23.1319 3.84113 21.6412 5.3361 21.6412 7.17995C21.6412 9.0238 23.1319 10.5188 24.9713 10.5188ZM24.9713 5.51054C25.8907 5.51054 26.6363 6.25802 26.6363 7.17995C26.6363 8.10187 25.8907 8.84936 24.9713 8.84936C24.0518 8.84936 23.3062 8.10187 23.3062 7.17995C23.3062 6.25802 24.0518 5.51054 24.9713 5.51054Z" fill="#FFBB01"/>
<path d="M31.6313 7.17992C31.6313 7.64088 31.2586 8.01463 30.7988 8.01463C30.3391 8.01463 29.9663 7.64088 29.9663 7.17992C29.9663 6.71896 30.3391 6.34521 30.7988 6.34521C31.2586 6.34521 31.6313 6.71896 31.6313 7.17992Z" fill="#FFBB01"/>
<path d="M19.9763 7.17992C19.9763 7.64088 19.6035 8.01463 19.1438 8.01463C18.684 8.01463 18.3113 7.64088 18.3113 7.17992C18.3113 6.71896 18.684 6.34521 19.1438 6.34521C19.6035 6.34521 19.9763 6.71896 19.9763 7.17992Z" fill="#FFBB01"/>
<path d="M49.805 5.88628L46.475 0.878048C46.3202 0.646956 46.0612 0.508789 45.784 0.508789C45.5068 0.508789 45.2474 0.646956 45.0929 0.878048L41.7629 5.88628C41.6719 6.022 41.6227 6.18177 41.6215 6.3452V9.68402C41.6215 10.145 41.9942 10.5187 42.454 10.5187C42.9137 10.5187 43.2865 10.145 43.2865 9.68402V6.59545L45.784 2.83928L48.2815 6.59545V15.527C48.2815 15.9879 48.6543 16.3617 49.114 16.3617C49.5738 16.3617 49.9465 15.9879 49.9465 15.527V6.3452C49.9453 6.18177 49.8961 6.022 49.805 5.88628Z" fill="#FFBB01"/>
<path d="M46.6166 12.1882V7.17992C46.6166 6.71896 46.2438 6.34521 45.784 6.34521C45.3243 6.34521 44.9515 6.71896 44.9515 7.17992V12.1882C44.9515 12.6491 45.3243 13.0229 45.784 13.0229C46.2438 13.0229 46.6166 12.6491 46.6166 12.1882Z" fill="#FFBB01"/>
<path d="M0.828737 8.01468H1.66124V18.0311C1.66124 18.4921 2.034 18.8658 2.49374 18.8658C2.95349 18.8658 3.32625 18.4921 3.32625 18.0311V7.17997C3.32625 6.71901 2.95349 6.34527 2.49374 6.34527H2.44375L4.99126 2.77291L7.53877 6.34527H7.48877C7.02902 6.34527 6.65626 6.71901 6.65626 7.17997V8.84938C6.65626 9.31034 7.02902 9.68409 7.48877 9.68409C7.94852 9.68409 8.32127 9.31034 8.32127 8.84938V8.01468H9.15378C9.46475 8.01305 9.74889 7.8382 9.89075 7.56064C10.0326 7.28349 10.0082 6.94969 9.82815 6.69578L5.66563 0.852842C5.50873 0.636014 5.25832 0.507629 4.99126 0.507629C4.72419 0.507629 4.47338 0.636014 4.31688 0.852842L0.154359 6.69578C-0.0261248 6.94969 -0.0501081 7.28349 0.0917591 7.56064C0.233626 7.8382 0.517767 8.01305 0.828737 8.01468Z" fill="#FFBB01"/>
<path d="M4.99121 12.1882V14.6923C4.99121 15.1532 5.36397 15.527 5.82372 15.527C6.28346 15.527 6.65622 15.1532 6.65622 14.6923V12.1882C6.65622 11.7272 6.28346 11.3535 5.82372 11.3535C5.36397 11.3535 4.99121 11.7272 4.99121 12.1882Z" fill="#FFBB01"/>
</svg>
