<svg width="50" height="51" viewBox="0 0 50 51" fill="none" xmlns="http://www.w3.org/2000/svg">
<path d="M42.1107 37.3022L39.1611 40.2596L37.3945 38.4803C37.0679 38.1527 36.5381 38.1527 36.2115 38.4803C35.8848 38.8078 35.8848 39.3389 36.2115 39.6665L38.5695 42.0308C38.7257 42.1891 38.9389 42.278 39.1611 42.278C39.3832 42.278 39.596 42.1891 39.7526 42.0308L43.3271 38.4803C43.5647 38.2763 43.6684 37.9557 43.5952 37.6506C43.522 37.345 43.2844 37.1068 42.9801 37.0334C42.6758 36.96 42.356 37.064 42.1521 37.3022H42.1107Z" fill="#FFBB01"/>
<path d="M43.3271 31.4963V28.9064C43.3271 28.4451 42.954 28.071 42.4939 28.071H39.9943V27.2356C39.9943 25.8515 41.1135 24.7294 42.4939 24.7294C42.954 24.7294 43.3271 24.3553 43.3271 23.8939C43.3271 23.4326 42.954 23.0585 42.4939 23.0585C40.1932 23.0585 38.3278 24.9288 38.3278 27.2356V28.071H35.8282C35.3681 28.071 34.995 28.4451 34.995 28.9064V31.4963C30.7219 33.46 28.3903 38.1429 29.3924 42.7471C30.3948 47.3516 34.4604 50.6345 39.161 50.6345C43.8613 50.6345 47.9273 47.3516 48.9297 42.7471C49.9318 38.1429 47.6002 33.46 43.3271 31.4963V31.4963ZM39.9943 48.9564V48.121C39.9943 47.6596 39.6212 47.2855 39.161 47.2855C38.7009 47.2855 38.3278 47.6596 38.3278 48.121V48.9564C34.3546 48.5746 31.2097 45.4214 30.8289 41.4376H31.6621C32.1223 41.4376 32.4953 41.0636 32.4953 40.6022C32.4953 40.1409 32.1223 39.7668 31.6621 39.7668H30.8289C31.143 36.6467 33.1731 33.9658 36.0865 32.8245C36.4071 32.7005 36.6187 32.3921 36.6199 32.0474V29.7418H41.6192V32.0474C41.62 32.3921 41.8316 32.7005 42.1522 32.8245C45.0981 33.9409 47.1644 36.6267 47.4932 39.7668H46.66C46.1998 39.7668 45.8267 40.1409 45.8267 40.6022C45.8267 41.0636 46.1998 41.4376 46.66 41.4376H47.4932C47.1124 45.4214 43.9675 48.5746 39.9943 48.9564V48.9564Z" fill="#FFBB01"/>
<path d="M26.8377 43.9439C26.6628 43.9439 4.16606 43.9439 4.16606 43.9439C2.78565 43.9439 1.66642 42.8217 1.66642 41.4377V14.7044H44.9935V30.1261C44.9935 30.5875 45.3665 30.9615 45.8267 30.9615C46.2868 30.9615 46.6599 30.5875 46.6599 30.1261V8.85647C46.6599 6.5497 44.7945 4.6794 42.4938 4.6794H40.8274V3.84398C40.8274 3.38263 40.4543 3.00856 39.9942 3.00856C39.5341 3.00856 39.161 3.38263 39.161 3.84398V7.18564C39.161 8.10835 38.4148 8.85647 37.4946 8.85647C36.5743 8.85647 35.8281 8.10835 35.8281 7.18564V3.84398C35.8281 2.92127 36.5743 2.17315 37.4946 2.17315C37.9547 2.17315 38.3278 1.79909 38.3278 1.33773C38.3278 0.87638 37.9547 0.502319 37.4946 0.502319C35.654 0.502319 34.1617 1.99856 34.1617 3.84398V4.6794H26.6628V3.84398C26.6628 3.38263 26.2897 3.00856 25.8296 3.00856C25.3694 3.00856 24.9964 3.38263 24.9964 3.84398V7.18564C24.9964 8.10835 24.2502 8.85647 23.3299 8.85647C22.4097 8.85647 21.6635 8.10835 21.6635 7.18564V3.84398C21.6635 2.92127 22.4097 2.17315 23.3299 2.17315C23.7901 2.17315 24.1632 1.79909 24.1632 1.33773C24.1632 0.87638 23.7901 0.502319 23.3299 0.502319C21.4894 0.502319 19.9971 1.99856 19.9971 3.84398V4.6794H12.4982V3.84398C12.4982 3.38263 12.1251 3.00856 11.665 3.00856C11.2048 3.00856 10.8318 3.38263 10.8318 3.84398V7.18564C10.8318 8.10835 10.0856 8.85647 9.16534 8.85647C8.24506 8.85647 7.49891 8.10835 7.49891 7.18564V3.84398C7.49891 2.92127 8.24506 2.17315 9.16534 2.17315C9.62547 2.17315 9.99855 1.79909 9.99855 1.33773C9.99855 0.87638 9.62547 0.502319 9.16534 0.502319C7.32478 0.502319 5.83249 1.99856 5.83249 3.84398V4.6794H4.16606C1.86537 4.6794 0 6.5497 0 8.85647V41.4377C0 43.7444 1.86537 45.6147 4.16606 45.6147H23.3299C27.7043 45.6147 27.7043 45.6147 27.7043 44.7793C27.7055 44.5574 27.6185 44.3437 27.4626 44.1862C27.2975 44.0214 27.0709 43.9333 26.8377 43.9439ZM4.16606 6.35023H5.83249V7.18564C5.83249 9.03106 7.32478 10.5273 9.16534 10.5273C11.0059 10.5273 12.4982 9.03106 12.4982 7.18564V6.35023H19.9971V7.18564C19.9971 9.03106 21.4894 10.5273 23.3299 10.5273C25.1705 10.5273 26.6628 9.03106 26.6628 7.18564V6.35023H34.1617V7.18564C34.1617 9.03106 35.654 10.5273 37.4946 10.5273C39.3351 10.5273 40.8274 9.03106 40.8274 7.18564V6.35023H42.4938C43.8742 6.35023 44.9935 7.47241 44.9935 8.85647V13.0335H1.66642V8.85647C1.66642 7.47241 2.78565 6.35023 4.16606 6.35023Z" fill="#FFBB01"/>
<path d="M14.9979 18.046C14.9979 17.5847 14.6248 17.2106 14.1647 17.2106H7.49898C7.03885 17.2106 6.66577 17.5847 6.66577 18.046V24.7294C6.66577 25.1907 7.03885 25.5648 7.49898 25.5648H14.1647C14.6248 25.5648 14.9979 25.1907 14.9979 24.7294V18.046ZM13.3315 23.894H8.3322V18.8815H13.3315V23.894Z" fill="#FFBB01"/>
<path d="M14.1647 30.5773C14.6248 30.5773 14.9979 30.2032 14.9979 29.7418C14.9979 29.2805 14.6248 28.9064 14.1647 28.9064H7.49898C7.03885 28.9064 6.66577 29.2805 6.66577 29.7418V36.4252C6.66577 36.8865 7.03885 37.2606 7.49898 37.2606H14.1647C14.6248 37.2606 14.9979 36.8865 14.9979 36.4252V33.0835C14.9979 32.6221 14.6248 32.2481 14.1647 32.2481C13.7045 32.2481 13.3315 32.6221 13.3315 33.0835V35.5897H8.3322V30.5773H14.1647Z" fill="#FFBB01"/>
<path d="M19.164 28.9064C18.7039 28.9064 18.3308 29.2805 18.3308 29.7418V36.4252C18.3308 36.8865 18.7039 37.2606 19.164 37.2606H25.8297C26.2898 37.2606 26.6629 36.8865 26.6629 36.4252V29.7418C26.6629 29.2805 26.2898 28.9064 25.8297 28.9064H19.164ZM24.9965 35.5897H19.9972V30.5773H24.9965V35.5897Z" fill="#FFBB01"/>
<path d="M37.4946 23.894C37.9548 23.894 38.3278 23.5199 38.3278 23.0585V18.046C38.3278 17.5847 37.9548 17.2106 37.4946 17.2106H30.8289C30.3688 17.2106 29.9957 17.5847 29.9957 18.046V24.7294C29.9957 25.1907 30.3688 25.5648 30.8289 25.5648C31.2891 25.5648 31.6621 25.1907 31.6621 24.7294V18.8815H36.6614V23.0585C36.6614 23.5199 37.0345 23.894 37.4946 23.894Z" fill="#FFBB01"/>
<path d="M26.4213 17.4529C26.2646 17.2947 26.0519 17.2057 25.8297 17.2057C25.6076 17.2057 25.3944 17.2947 25.2382 17.4529L22.4969 20.2097L19.7556 17.4529C19.4289 17.1254 18.8992 17.1254 18.5725 17.4529C18.2458 17.7805 18.2458 18.3116 18.5725 18.6392L21.3219 21.3877L18.5725 24.1363C18.4146 24.2929 18.3259 24.5067 18.3259 24.7294C18.3259 24.9521 18.4146 25.1659 18.5725 25.3225C18.7287 25.4808 18.9419 25.5697 19.164 25.5697C19.3862 25.5697 19.5989 25.4808 19.7556 25.3225L22.4969 22.5658L25.2382 25.3225C25.3944 25.4808 25.6076 25.5697 25.8297 25.5697C26.0519 25.5697 26.2646 25.4808 26.4213 25.3225C26.5791 25.1659 26.6678 24.9521 26.6678 24.7294C26.6678 24.5067 26.5791 24.2929 26.4213 24.1363L23.6718 21.3877L26.4213 18.6392C26.5791 18.4825 26.6678 18.2688 26.6678 18.0461C26.6678 17.8233 26.5791 17.6096 26.4213 17.4529V17.4529Z" fill="#FFBB01"/>
</svg>
