<svg width="50" height="51" viewBox="0 0 50 51" fill="none" xmlns="http://www.w3.org/2000/svg">
<path d="M42.1107 36.7999L39.1611 39.7573L37.3945 37.9779C37.0679 37.6504 36.5381 37.6504 36.2115 37.9779C35.8848 38.3055 35.8848 38.8366 36.2115 39.1642L38.5695 41.5285C38.7257 41.6867 38.9389 41.7757 39.1611 41.7757C39.3832 41.7757 39.596 41.6867 39.7526 41.5285L43.3271 37.9779C43.5647 37.774 43.6684 37.4534 43.5952 37.1482C43.522 36.8427 43.2844 36.6045 42.9801 36.5311C42.6758 36.4576 42.356 36.5617 42.1521 36.7999H42.1107Z" fill="#31e89f"/>
<path d="M43.3271 30.994V28.4041C43.3271 27.9428 42.954 27.5687 42.4939 27.5687H39.9943V26.7333C39.9943 25.3492 41.1135 24.227 42.4939 24.227C42.954 24.227 43.3271 23.853 43.3271 23.3916C43.3271 22.9303 42.954 22.5562 42.4939 22.5562C40.1932 22.5562 38.3278 24.4265 38.3278 26.7333V27.5687H35.8282C35.3681 27.5687 34.995 27.9428 34.995 28.4041V30.994C30.7219 32.9577 28.3903 37.6406 29.3924 42.2447C30.3948 46.8493 34.4604 50.1322 39.161 50.1322C43.8613 50.1322 47.9273 46.8493 48.9297 42.2447C49.9318 37.6406 47.6002 32.9577 43.3271 30.994ZM39.9943 48.4541V47.6186C39.9943 47.1573 39.6212 46.7832 39.161 46.7832C38.7009 46.7832 38.3278 47.1573 38.3278 47.6186V48.4541C34.3546 48.0722 31.2097 44.919 30.8289 40.9353H31.6621C32.1223 40.9353 32.4953 40.5613 32.4953 40.0999C32.4953 39.6386 32.1223 39.2645 31.6621 39.2645H30.8289C31.143 36.1443 33.1731 33.4635 36.0865 32.3222C36.4071 32.1982 36.6187 31.8898 36.6199 31.5451V29.2395H41.6192V31.5451C41.62 31.8898 41.8316 32.1982 42.1522 32.3222C45.0981 33.4386 47.1644 36.1244 47.4932 39.2645H46.66C46.1998 39.2645 45.8267 39.6386 45.8267 40.0999C45.8267 40.5613 46.1998 40.9353 46.66 40.9353H47.4932C47.1124 44.919 43.9675 48.0722 39.9943 48.4541Z" fill="#31C6E8"/>
<path d="M26.8377 43.4416C26.6628 43.4416 4.16606 43.4416 4.16606 43.4416C2.78565 43.4416 1.66642 42.3194 1.66642 40.9353V14.2021H44.9935V29.6238C44.9935 30.0851 45.3665 30.4592 45.8267 30.4592C46.2868 30.4592 46.6599 30.0851 46.6599 29.6238V8.35415C46.6599 6.04738 44.7945 4.17708 42.4938 4.17708H40.8274V3.34166C40.8274 2.88031 40.4543 2.50625 39.9942 2.50625C39.5341 2.50625 39.161 2.88031 39.161 3.34166V6.68332C39.161 7.60603 38.4148 8.35415 37.4946 8.35415C36.5743 8.35415 35.8281 7.60603 35.8281 6.68332V3.34166C35.8281 2.41895 36.5743 1.67083 37.4946 1.67083C37.9547 1.67083 38.3278 1.29677 38.3278 0.835415C38.3278 0.37406 37.9547 0 37.4946 0C35.654 0 34.1617 1.49624 34.1617 3.34166V4.17708H26.6628V3.34166C26.6628 2.88031 26.2897 2.50625 25.8296 2.50625C25.3694 2.50625 24.9964 2.88031 24.9964 3.34166V6.68332C24.9964 7.60603 24.2502 8.35415 23.3299 8.35415C22.4097 8.35415 21.6635 7.60603 21.6635 6.68332V3.34166C21.6635 2.41895 22.4097 1.67083 23.3299 1.67083C23.7901 1.67083 24.1632 1.29677 24.1632 0.835415C24.1632 0.37406 23.7901 0 23.3299 0C21.4894 0 19.9971 1.49624 19.9971 3.34166V4.17708H12.4982V3.34166C12.4982 2.88031 12.1251 2.50625 11.665 2.50625C11.2048 2.50625 10.8318 2.88031 10.8318 3.34166V6.68332C10.8318 7.60603 10.0856 8.35415 9.16534 8.35415C8.24506 8.35415 7.49891 7.60603 7.49891 6.68332V3.34166C7.49891 2.41895 8.24506 1.67083 9.16534 1.67083C9.62547 1.67083 9.99855 1.29677 9.99855 0.835415C9.99855 0.37406 9.62547 0 9.16534 0C7.32478 0 5.83249 1.49624 5.83249 3.34166V4.17708H4.16606C1.86537 4.17708 0 6.04738 0 8.35415V40.9353C0 43.2421 1.86537 45.1124 4.16606 45.1124H23.3299C27.7043 45.1124 27.7043 45.1124 27.7043 44.277C27.7055 44.0551 27.6185 43.8414 27.4626 43.6839C27.2975 43.5191 27.0709 43.431 26.8377 43.4416ZM4.16606 5.84791H5.83249V6.68332C5.83249 8.52874 7.32478 10.025 9.16534 10.025C11.0059 10.025 12.4982 8.52874 12.4982 6.68332V5.84791H19.9971V6.68332C19.9971 8.52874 21.4894 10.025 23.3299 10.025C25.1705 10.025 26.6628 8.52874 26.6628 6.68332V5.84791H34.1617V6.68332C34.1617 8.52874 35.654 10.025 37.4946 10.025C39.3351 10.025 40.8274 8.52874 40.8274 6.68332V5.84791H42.4938C43.8742 5.84791 44.9935 6.97009 44.9935 8.35415V12.5312H1.66642V8.35415C1.66642 6.97009 2.78565 5.84791 4.16606 5.84791Z" fill="#31C6E8"/>
<path d="M14.9979 17.5437C14.9979 17.0824 14.6248 16.7083 14.1647 16.7083H7.49898C7.03885 16.7083 6.66577 17.0824 6.66577 17.5437V24.2271C6.66577 24.6884 7.03885 25.0625 7.49898 25.0625H14.1647C14.6248 25.0625 14.9979 24.6884 14.9979 24.2271V17.5437ZM13.3315 23.3916H8.3322V18.3791H13.3315V23.3916Z" fill="#31C6E8"/>
<path d="M14.1647 30.0749C14.6248 30.0749 14.9979 29.7009 14.9979 29.2395C14.9979 28.7782 14.6248 28.4041 14.1647 28.4041H7.49898C7.03885 28.4041 6.66577 28.7782 6.66577 29.2395V35.9228C6.66577 36.3842 7.03885 36.7583 7.49898 36.7583H14.1647C14.6248 36.7583 14.9979 36.3842 14.9979 35.9228V32.5812C14.9979 32.1198 14.6248 31.7458 14.1647 31.7458C13.7045 31.7458 13.3315 32.1198 13.3315 32.5812V35.0874H8.3322V30.0749H14.1647Z" fill="#31C6E8"/>
<path d="M19.164 28.4041C18.7039 28.4041 18.3308 28.7782 18.3308 29.2395V35.9228C18.3308 36.3842 18.7039 36.7583 19.164 36.7583H25.8297C26.2898 36.7583 26.6629 36.3842 26.6629 35.9228V29.2395C26.6629 28.7782 26.2898 28.4041 25.8297 28.4041H19.164ZM24.9965 35.0874H19.9972V30.0749H24.9965V35.0874Z" fill="#31C6E8"/>
<path d="M37.4946 23.3916C37.9548 23.3916 38.3278 23.0176 38.3278 22.5562V17.5437C38.3278 17.0824 37.9548 16.7083 37.4946 16.7083H30.8289C30.3688 16.7083 29.9957 17.0824 29.9957 17.5437V24.2271C29.9957 24.6884 30.3688 25.0625 30.8289 25.0625C31.2891 25.0625 31.6621 24.6884 31.6621 24.2271V18.3791H36.6614V22.5562C36.6614 23.0176 37.0345 23.3916 37.4946 23.3916Z" fill="#31C6E8"/>
<path d="M26.4213 16.9506C26.2646 16.7924 26.0519 16.7034 25.8297 16.7034C25.6076 16.7034 25.3944 16.7924 25.2382 16.9506L22.4969 19.7073L19.7556 16.9506C19.4289 16.6231 18.8992 16.6231 18.5725 16.9506C18.2458 17.2782 18.2458 17.8093 18.5725 18.1369L21.3219 20.8854L18.5725 23.6339C18.4146 23.7906 18.3259 24.0043 18.3259 24.2271C18.3259 24.4498 18.4146 24.6635 18.5725 24.8202C18.7287 24.9784 18.9419 25.0674 19.164 25.0674C19.3862 25.0674 19.5989 24.9784 19.7556 24.8202L22.4969 22.0635L25.2382 24.8202C25.3944 24.9784 25.6076 25.0674 25.8297 25.0674C26.0519 25.0674 26.2646 24.9784 26.4213 24.8202C26.5791 24.6635 26.6678 24.4498 26.6678 24.2271C26.6678 24.0043 26.5791 23.7906 26.4213 23.6339L23.6718 20.8854L26.4213 18.1369C26.5791 17.9802 26.6678 17.7665 26.6678 17.5437C26.6678 17.321 26.5791 17.1073 26.4213 16.9506Z" fill="#31e89f"/>
</svg>
