<svg width="50" height="51" viewBox="0 0 50 51" fill="none" xmlns="http://www.w3.org/2000/svg">
<path d="M49.9035 11.8833C49.7314 11.2416 49.3116 10.6946 48.7371 10.363C48.1623 10.0297 47.4788 9.93959 46.8376 10.1121C46.1973 10.2851 45.6517 10.7056 45.3209 11.2816L44.9043 12.0085C44.5085 11.7805 44.0028 11.9147 43.7713 12.3095L41.655 15.9264L40.93 15.5087C40.738 15.3974 40.5093 15.3672 40.2953 15.4251C40.0809 15.4835 39.8987 15.6246 39.7884 15.8179C39.5626 16.2173 39.7002 16.7247 40.0968 16.954L40.8218 17.3717L33.7397 29.677L31.9899 34.3639L31.1567 35.9257C30.6689 36.7766 30.721 37.8343 31.2901 38.6326L29.4154 40.9381L28.8906 39.6185C28.6539 39.0303 28.1059 38.6273 27.4757 38.5779C26.8451 38.5282 26.2409 38.8406 25.9159 39.3844L25.616 39.8939L25.3329 36.5523C25.2678 35.7618 24.6571 35.1262 23.872 35.0308C23.0864 34.9357 22.3427 35.4077 22.0917 36.1599L20.042 42.325C19.8988 42.761 20.1332 43.2309 20.5669 43.3778C20.6482 43.4157 20.7357 43.4386 20.8252 43.4443C21.1832 43.4455 21.5022 43.2167 21.6169 42.8765L23.658 36.7114L23.9497 40.1027C24.0099 40.8263 24.5286 41.428 25.234 41.592C25.9395 41.756 26.6693 41.4443 27.0408 40.8214L27.3491 40.3116L27.8658 41.6234C28.0851 42.1761 28.581 42.5705 29.1681 42.6582C29.7552 42.7459 30.3442 42.5138 30.7153 42.0492L32.6567 39.5851C32.8715 39.6414 33.0928 39.6695 33.3149 39.6687C34.2079 39.6756 35.037 39.2041 35.4894 38.4319L36.3226 37.0369L39.4971 33.1691L46.6541 20.7132L47.3791 21.1309C47.5723 21.2419 47.7131 21.425 47.7705 21.6408C47.8282 21.855 47.7981 22.0834 47.6875 22.2755L44.3547 28.065C44.229 28.255 44.1863 28.4884 44.2367 28.7111C44.2872 28.9334 44.4259 29.1255 44.6212 29.2426C44.8132 29.3543 45.0419 29.3845 45.2558 29.3266C45.4702 29.2683 45.6525 29.1271 45.7628 28.9338L49.0955 23.1444C49.4279 22.568 49.5178 21.8827 49.3453 21.2398C49.1728 20.5978 48.7534 20.0508 48.1789 19.7192L47.454 19.3015L49.5369 15.6841C49.7644 15.2873 49.6305 14.7806 49.2371 14.5481L49.6537 13.8212C49.995 13.2359 50.0853 12.5367 49.9035 11.8833ZM46.7623 12.117C46.8726 11.9237 47.0557 11.7821 47.2709 11.7246C47.4849 11.6716 47.7111 11.7013 47.9039 11.8082C48.0972 11.9188 48.2379 12.1023 48.2957 12.3177C48.3486 12.5322 48.3189 12.759 48.2123 12.9524L47.7957 13.6793L46.3458 12.8439L46.7623 12.117ZM35.406 35.4415L34.9894 35.1993L33.7563 34.4805L34.9394 31.3062L37.5639 32.8265L35.406 35.4415ZM32.9065 37.8555C32.5546 37.6096 32.4463 37.1364 32.6567 36.7611L33.0733 36.0346L34.5228 36.87L34.1062 37.5884C33.9895 37.7915 33.7934 37.9359 33.5651 37.9869C33.3369 38.0375 33.0981 37.9902 32.9065 37.8555ZM38.5138 31.4567L35.631 29.7859L42.2966 18.2071L45.1794 19.8778L38.5138 31.4567ZM46.0126 18.4326L43.1297 16.7618L44.7961 13.8714L47.6789 15.5422L46.0126 18.4326Z" fill="#31e89f"/>
<path d="M13.1476 37.4424L10.1985 40.3915L8.43203 38.6204C8.10697 38.2965 7.58216 38.2965 7.2571 38.6204C7.09925 38.7775 7.01056 38.9908 7.01056 39.2135C7.01056 39.4362 7.09925 39.65 7.2571 39.8066L9.02356 41.5777C9.33601 41.8886 9.7583 42.0627 10.1985 42.0623C10.6411 42.0648 11.0671 41.8906 11.3816 41.5777L14.3225 38.6204C14.6057 38.2888 14.5866 37.7948 14.279 37.4864C13.971 37.1776 13.4784 37.1585 13.1476 37.4424Z" fill="#31e89f"/>
<path d="M3.33282 39.6896C3.33282 43.6117 6.50367 46.7905 10.415 46.7905C14.3262 46.7905 17.4971 43.6117 17.4971 39.6896C17.4971 39.2283 17.124 38.8542 16.6639 38.8542C16.2038 38.8542 15.8307 39.2283 15.8307 39.6896C15.8307 42.6886 13.406 45.1197 10.415 45.1197C7.42392 45.1197 4.99921 42.6886 4.99921 39.6896C4.99921 36.6907 7.42392 34.2596 10.415 34.2596C11.5874 34.2563 12.7286 34.6377 13.6643 35.3458C14.0325 35.6228 14.5549 35.5477 14.8307 35.1786C15.1069 34.8094 15.0325 34.2861 14.6643 34.0091C12.5183 32.3954 9.64685 32.136 7.24777 33.3385C4.84827 34.5414 3.33282 37.0003 3.33282 39.6896Z" fill="#31C6E8"/>
<path d="M29.9948 6.69148C30.455 6.69148 30.828 6.31784 30.828 5.85609C30.828 5.39474 30.455 5.02069 29.9948 5.02069H8.33185C7.87172 5.02069 7.49866 5.39474 7.49866 5.85609V9.19766C7.49866 9.65941 7.87172 10.0331 8.33185 10.0331H29.9948C30.455 10.0331 30.828 9.65941 30.828 9.19766C30.828 8.73632 30.455 8.36227 29.9948 8.36227H9.16504V6.69148H29.9948Z" fill="#31C6E8"/>
<path d="M10.8315 11.7039C10.3714 11.7039 9.99829 12.078 9.99829 12.5393C9.99829 13.0011 10.3714 13.3747 10.8315 13.3747H27.4953C27.9554 13.3747 28.3285 13.0011 28.3285 12.5393C28.3285 12.078 27.9554 11.7039 27.4953 11.7039H10.8315Z" fill="#31C6E8"/>
<path d="M32.4945 17.5516H14.1643C13.7042 17.5516 13.3311 17.9256 13.3311 18.387C13.3311 18.8487 13.7042 19.2224 14.1643 19.2224H32.4945C32.9546 19.2224 33.3277 18.8487 33.3277 18.387C33.3277 17.9256 32.9546 17.5516 32.4945 17.5516Z" fill="#31C6E8"/>
<path d="M24.1625 23.3994C24.1625 22.938 23.7895 22.564 23.3294 22.564H6.66553C6.2054 22.564 5.83234 22.938 5.83234 23.3994C5.83234 23.8611 6.2054 24.2348 6.66553 24.2348H23.3294C23.7895 24.2348 24.1625 23.8611 24.1625 23.3994Z" fill="#31C6E8"/>
<path d="M32.4944 22.564H26.6621C26.202 22.564 25.8289 22.938 25.8289 23.3994C25.8289 23.8611 26.202 24.2348 26.6621 24.2348H32.4944C32.9546 24.2348 33.3276 23.8611 33.3276 23.3994C33.3276 22.938 32.9546 22.564 32.4944 22.564Z" fill="#31C6E8"/>
<path d="M14.9974 28.4117C15.4576 28.4117 15.8306 28.0381 15.8306 27.5764C15.8306 27.115 15.4576 26.741 14.9974 26.741H6.66553C6.2054 26.741 5.83234 27.115 5.83234 27.5764C5.83234 28.0381 6.2054 28.4117 6.66553 28.4117H14.9974Z" fill="#31C6E8"/>
<path d="M18.3301 28.4117H24.1625C24.6226 28.4117 24.9957 28.0381 24.9957 27.5764C24.9957 27.115 24.6226 26.741 24.1625 26.741H18.3301C17.87 26.741 17.4969 27.115 17.4969 27.5764C17.4969 28.0381 17.87 28.4117 18.3301 28.4117Z" fill="#31C6E8"/>
<path d="M37.4936 38.4365C37.0335 38.4365 36.6604 38.8105 36.6604 39.2719V47.6258C36.6604 48.0876 36.2874 48.4612 35.8272 48.4612H2.49957C2.03945 48.4612 1.66638 48.0876 1.66638 47.6258V2.51454C1.66638 2.0532 2.03945 1.67915 2.49957 1.67915H35.8272C36.2874 1.67915 36.6604 2.0532 36.6604 2.51454V18.2035C36.6604 18.6648 37.0335 19.0389 37.4936 19.0389C37.9537 19.0389 38.3268 18.6648 38.3268 18.2035V2.51454C38.3268 1.13051 37.2076 0.00836182 35.8272 0.00836182H2.49957C1.11919 0.00836182 0 1.13051 0 2.51454V47.6258C0 49.0103 1.11919 50.132 2.49957 50.132H35.8272C37.2076 50.132 38.3268 49.0103 38.3268 47.6258V39.2719C38.3268 38.8105 37.9537 38.4365 37.4936 38.4365Z" fill="#31C6E8"/>
</svg>
