<svg width="50" height="51" viewBox="0 0 50 51" fill="none" xmlns="http://www.w3.org/2000/svg">
<path d="M49.9035 12.3856C49.7314 11.7439 49.3116 11.1969 48.7371 10.8653C48.1623 10.5321 47.4788 10.4419 46.8376 10.6145C46.1973 10.7874 45.6517 11.208 45.3209 11.7839L44.9043 12.5108C44.5085 12.2828 44.0028 12.417 43.7713 12.8119L41.655 16.4288L40.93 16.0111C40.738 15.8997 40.5093 15.8695 40.2953 15.9274C40.0809 15.9858 39.8987 16.1269 39.7884 16.3203C39.5626 16.7196 39.7002 17.227 40.0968 17.4563L40.8218 17.874L33.7397 30.1793L31.9899 34.8662L31.1567 36.4281C30.6689 37.2789 30.721 38.3367 31.2901 39.1349L29.4154 41.4404L28.8906 40.1208C28.6539 39.5326 28.1059 39.1296 27.4757 39.0803C26.8451 39.0305 26.2409 39.343 25.9159 39.8867L25.616 40.3962L25.3329 37.0546C25.2678 36.2641 24.6571 35.6286 23.872 35.5331C23.0864 35.4381 22.3427 35.91 22.0917 36.6622L20.042 42.8273C19.8988 43.2634 20.1332 43.7333 20.5669 43.8801C20.6482 43.918 20.7357 43.9409 20.8252 43.9466C21.1832 43.9478 21.5022 43.719 21.6169 43.3788L23.658 37.2137L23.9497 40.605C24.0099 41.3287 24.5286 41.9303 25.234 42.0943C25.9395 42.2583 26.6693 41.9466 27.0408 41.3238L27.3491 40.8139L27.8658 42.1257C28.0851 42.6784 28.581 43.0729 29.1681 43.1606C29.7552 43.2483 30.3442 43.0162 30.7153 42.5516L32.6567 40.0874C32.8715 40.1437 33.0928 40.1718 33.3149 40.171C34.2079 40.1779 35.037 39.7064 35.4894 38.9342L36.3226 37.5392L39.4971 33.6714L46.6541 21.2156L47.3791 21.6333C47.5723 21.7442 47.7131 21.9274 47.7705 22.1431C47.8282 22.3573 47.7981 22.5857 47.6875 22.7778L44.3547 28.5673C44.229 28.7574 44.1863 28.9907 44.2367 29.2134C44.2872 29.4357 44.4259 29.6278 44.6212 29.7449C44.8132 29.8567 45.0419 29.8869 45.2558 29.8289C45.4702 29.7706 45.6525 29.6295 45.7628 29.4361L49.0955 23.6467C49.4279 23.0703 49.5178 22.385 49.3453 21.7422C49.1728 21.1001 48.7534 20.5531 48.1789 20.2215L47.454 19.8038L49.5369 16.1865C49.7644 15.7896 49.6305 15.283 49.2371 15.0504L49.6537 14.3236C49.995 13.7382 50.0853 13.0391 49.9035 12.3856V12.3856ZM46.7623 12.6193C46.8726 12.426 47.0557 12.2844 47.2709 12.2269C47.4849 12.1739 47.7111 12.2037 47.9039 12.3105C48.0972 12.4211 48.2379 12.6046 48.2957 12.82C48.3486 13.0346 48.3189 13.2614 48.2123 13.4547L47.7957 14.1816L46.3458 13.3462L46.7623 12.6193ZM35.406 35.9439L34.9894 35.7016L33.7563 34.9828L34.9394 31.8085L37.5639 33.3288L35.406 35.9439ZM32.9065 38.3579C32.5546 38.1119 32.4463 37.6387 32.6567 37.2634L33.0733 36.537L34.5228 37.3724L34.1062 38.0907C33.9895 38.2938 33.7934 38.4382 33.5651 38.4892C33.3369 38.5398 33.0981 38.4925 32.9065 38.3579ZM38.5138 31.959L35.631 30.2882L42.2966 18.7094L45.1794 20.3802L38.5138 31.959ZM46.0126 18.9349L43.1297 17.2642L44.7961 14.3737L47.6789 16.0445L46.0126 18.9349Z" fill="#FFBB01"/>
<path d="M13.1476 37.9447L10.1985 40.8939L8.43203 39.1227C8.10697 38.7989 7.58216 38.7989 7.2571 39.1227C7.09925 39.2798 7.01056 39.4931 7.01056 39.7158C7.01056 39.9385 7.09925 40.1523 7.2571 40.3089L9.02356 42.08C9.33601 42.3909 9.7583 42.5651 10.1985 42.5646C10.6411 42.5671 11.0671 42.3929 11.3816 42.08L14.3225 39.1227C14.6057 38.7911 14.5866 38.2971 14.279 37.9888C13.971 37.68 13.4784 37.6608 13.1476 37.9447Z" fill="#FFBB01"/>
<path d="M3.33282 40.1919C3.33282 44.114 6.50367 47.2928 10.415 47.2928C14.3262 47.2928 17.4971 44.114 17.4971 40.1919C17.4971 39.7306 17.124 39.3565 16.6639 39.3565C16.2038 39.3565 15.8307 39.7306 15.8307 40.1919C15.8307 43.1909 13.406 45.622 10.415 45.622C7.42392 45.622 4.99921 43.1909 4.99921 40.1919C4.99921 37.193 7.42392 34.7619 10.415 34.7619C11.5874 34.7586 12.7286 35.14 13.6643 35.8481C14.0325 36.1251 14.5549 36.05 14.8307 35.6809C15.1069 35.3117 15.0325 34.7884 14.6643 34.5114C12.5183 32.8977 9.64685 32.6383 7.24777 33.8408C4.84827 35.0437 3.33282 37.5026 3.33282 40.1919Z" fill="#FFBB01"/>
<path d="M29.9948 7.1938C30.455 7.1938 30.828 6.82016 30.828 6.3584C30.828 5.89706 30.455 5.52301 29.9948 5.52301H8.33185C7.87172 5.52301 7.49866 5.89706 7.49866 6.3584V9.69998C7.49866 10.1617 7.87172 10.5354 8.33185 10.5354H29.9948C30.455 10.5354 30.828 10.1617 30.828 9.69998C30.828 9.23864 30.455 8.86459 29.9948 8.86459H9.16504V7.1938H29.9948Z" fill="#FFBB01"/>
<path d="M10.8315 12.2062C10.3714 12.2062 9.99829 12.5803 9.99829 13.0416C9.99829 13.5034 10.3714 13.877 10.8315 13.877H27.4953C27.9554 13.877 28.3285 13.5034 28.3285 13.0416C28.3285 12.5803 27.9554 12.2062 27.4953 12.2062H10.8315Z" fill="#FFBB01"/>
<path d="M32.4945 18.0539H14.1643C13.7042 18.0539 13.3311 18.4279 13.3311 18.8893C13.3311 19.351 13.7042 19.7247 14.1643 19.7247H32.4945C32.9546 19.7247 33.3277 19.351 33.3277 18.8893C33.3277 18.4279 32.9546 18.0539 32.4945 18.0539Z" fill="#FFBB01"/>
<path d="M24.1625 23.9017C24.1625 23.4403 23.7895 23.0663 23.3294 23.0663H6.66553C6.2054 23.0663 5.83234 23.4403 5.83234 23.9017C5.83234 24.3634 6.2054 24.7371 6.66553 24.7371H23.3294C23.7895 24.7371 24.1625 24.3634 24.1625 23.9017Z" fill="#FFBB01"/>
<path d="M32.4944 23.0663H26.6621C26.202 23.0663 25.8289 23.4403 25.8289 23.9017C25.8289 24.3634 26.202 24.7371 26.6621 24.7371H32.4944C32.9546 24.7371 33.3276 24.3634 33.3276 23.9017C33.3276 23.4403 32.9546 23.0663 32.4944 23.0663Z" fill="#FFBB01"/>
<path d="M14.9974 28.9141C15.4576 28.9141 15.8306 28.5404 15.8306 28.0787C15.8306 27.6173 15.4576 27.2433 14.9974 27.2433H6.66553C6.2054 27.2433 5.83234 27.6173 5.83234 28.0787C5.83234 28.5404 6.2054 28.9141 6.66553 28.9141H14.9974Z" fill="#FFBB01"/>
<path d="M18.3301 28.9141H24.1625C24.6226 28.9141 24.9957 28.5404 24.9957 28.0787C24.9957 27.6173 24.6226 27.2433 24.1625 27.2433H18.3301C17.87 27.2433 17.4969 27.6173 17.4969 28.0787C17.4969 28.5404 17.87 28.9141 18.3301 28.9141Z" fill="#FFBB01"/>
<path d="M37.4936 38.9388C37.0335 38.9388 36.6604 39.3129 36.6604 39.7742V48.1282C36.6604 48.5899 36.2874 48.9635 35.8272 48.9635H2.49957C2.03945 48.9635 1.66638 48.5899 1.66638 48.1282V3.01686C1.66638 2.55552 2.03945 2.18147 2.49957 2.18147H35.8272C36.2874 2.18147 36.6604 2.55552 36.6604 3.01686V18.7058C36.6604 19.1671 37.0335 19.5412 37.4936 19.5412C37.9537 19.5412 38.3268 19.1671 38.3268 18.7058V3.01686C38.3268 1.63283 37.2076 0.510681 35.8272 0.510681H2.49957C1.11919 0.510681 0 1.63283 0 3.01686V48.1282C0 49.5126 1.11919 50.6343 2.49957 50.6343H35.8272C37.2076 50.6343 38.3268 49.5126 38.3268 48.1282V39.7742C38.3268 39.3129 37.9537 38.9388 37.4936 38.9388Z" fill="#FFBB01"/>
</svg>
