<svg width="50" height="51" viewBox="0 0 50 51" fill="none" xmlns="http://www.w3.org/2000/svg">
<path d="M48.3277 35.94V33.634H49.1609C49.3908 33.6356 49.6109 33.5418 49.7692 33.375C49.9107 33.2163 49.9909 33.0115 49.9941 32.7986L48.5026 4.39361C48.3606 2.09452 46.459 0.30249 44.1615 0.30249C41.864 0.30249 39.9624 2.09452 39.8204 4.39361L38.3288 32.7986C38.3219 33.0262 38.4025 33.2473 38.5538 33.417C38.719 33.5683 38.9383 33.6466 39.1621 33.634H39.9953V35.94L38.4204 39.1064C38.3016 39.3426 38.3016 39.6216 38.4204 39.8582L43.4198 49.8835C43.4605 49.9756 43.5203 50.058 43.5947 50.1258C43.692 50.2159 43.8092 50.282 43.9365 50.3179H44.3946C44.5224 50.282 44.6395 50.2159 44.7364 50.1258C44.8112 50.058 44.8706 49.9756 44.9113 49.8835L49.9107 39.8582C50.0295 39.6216 50.0295 39.3426 49.9107 39.1064L48.3277 35.94ZM40.0368 31.9631L40.3871 25.2796H47.9359L48.3277 31.9631H40.0368ZM41.4868 4.43563C41.4868 2.95444 42.6842 1.7535 44.1615 1.7535C45.6388 1.7535 46.8362 2.95444 46.8362 4.43563L47.8443 23.6507H40.4787L40.5702 21.9799H45.2112C45.6717 21.9799 46.0444 21.6058 46.0444 21.1444C46.0444 20.6826 45.6717 20.309 45.2112 20.309H40.6536L41.4868 4.43563ZM46.6612 33.634V35.3049H41.6618V33.634H46.6612ZM44.9947 45.9653V40.3175H45.828C46.2881 40.3175 46.6612 39.9434 46.6612 39.4821C46.6612 39.0207 46.2881 38.6466 45.828 38.6466H42.495C42.0349 38.6466 41.6618 39.0207 41.6618 39.4821C41.6618 39.9434 42.0349 40.3175 42.495 40.3175H43.3283V45.9653L40.0954 39.4821L41.3453 36.9758H46.9777L48.2276 39.4821L44.9947 45.9653Z" fill="#FFBB01"/>
<path d="M28.3301 11.0773C28.7902 11.0773 29.1633 10.7033 29.1633 10.2419C29.1633 9.78053 28.7902 9.40646 28.3301 9.40646H6.66594C6.20579 9.40646 5.8327 9.78053 5.8327 10.2419V13.5837C5.8327 14.045 6.20579 14.4191 6.66594 14.4191H28.3301C28.7902 14.4191 29.1633 14.045 29.1633 13.5837C29.1633 13.1223 28.7902 12.7482 28.3301 12.7482H7.49917V11.0773H28.3301Z" fill="#FFBB01"/>
<path d="M29.1633 18.5963C29.1633 18.1349 28.7902 17.7608 28.3301 17.7608H9.99889C9.53873 17.7608 9.16565 18.1349 9.16565 18.5963C9.16565 19.0576 9.53873 19.4317 9.99889 19.4317H28.3301C28.7902 19.4317 29.1633 19.0576 29.1633 18.5963Z" fill="#FFBB01"/>
<path d="M4.99945 22.7734C4.99945 23.2348 5.37254 23.6089 5.83269 23.6089H19.1645C19.6246 23.6089 19.9977 23.2348 19.9977 22.7734C19.9977 22.3121 19.6246 21.938 19.1645 21.938H5.83269C5.37254 21.938 4.99945 22.3121 4.99945 22.7734Z" fill="#FFBB01"/>
<path d="M24.1639 21.938C23.7038 21.938 23.3307 22.3121 23.3307 22.7734C23.3307 23.2348 23.7038 23.6089 24.1639 23.6089H27.4969C27.957 23.6089 28.3301 23.2348 28.3301 22.7734C28.3301 22.3121 27.957 21.938 27.4969 21.938H24.1639Z" fill="#FFBB01"/>
<path d="M16.6648 26.9506C16.6648 26.4893 16.2917 26.1152 15.8315 26.1152H5.83269C5.37254 26.1152 4.99945 26.4893 4.99945 26.9506C4.99945 27.412 5.37254 27.7861 5.83269 27.7861H15.8315C16.2917 27.7861 16.6648 27.412 16.6648 26.9506Z" fill="#FFBB01"/>
<path d="M15.8315 31.1279C15.8315 30.6666 15.4584 30.2925 14.9983 30.2925H5.83269C5.37254 30.2925 4.99945 30.6666 4.99945 31.1279C4.99945 31.5893 5.37254 31.9634 5.83269 31.9634H14.9983C15.4584 31.9634 15.8315 31.5893 15.8315 31.1279Z" fill="#FFBB01"/>
<path d="M5.83269 34.4696C5.37254 34.4696 4.99945 34.8437 4.99945 35.3051C4.99945 35.7664 5.37254 36.1405 5.83269 36.1405H11.6653C12.1255 36.1405 12.4986 35.7664 12.4986 35.3051C12.4986 34.8437 12.1255 34.4696 11.6653 34.4696H5.83269Z" fill="#FFBB01"/>
<path d="M32.4962 0.216614H2.49971C1.11925 0.216614 0 1.33883 0 2.72293V41.1531C0 42.5372 1.11925 43.6595 2.49971 43.6595H16.6647C17.1249 43.6595 17.498 43.2854 17.498 42.824C17.498 42.3627 17.1249 41.9886 16.6647 41.9886H2.49971C2.03956 41.9886 1.66647 41.6145 1.66647 41.1531V7.73557H33.3295V41.1531C33.3295 41.6145 32.9564 41.9886 32.4962 41.9886H29.9965C29.5364 41.9886 29.1633 42.3627 29.1633 42.824C29.1633 43.2854 29.5364 43.6595 29.9965 43.6595H32.4962C33.8767 43.6595 34.9959 42.5372 34.9959 41.1531V2.72293C34.9959 1.33883 33.8767 0.216614 32.4962 0.216614V0.216614ZM1.66647 6.06469V2.72293C1.66647 2.26156 2.03956 1.88749 2.49971 1.88749H32.4962C32.9564 1.88749 33.3295 2.26156 33.3295 2.72293V6.06469H1.66647Z" fill="#FFBB01"/>
<path d="M23.3306 31.1278C21.9501 31.1278 20.8309 32.25 20.8309 33.6341C20.8309 35.0182 21.9501 36.1405 23.3306 36.1405C24.711 36.1405 25.8303 35.0182 25.8303 33.6341C25.8303 32.25 24.711 31.1278 23.3306 31.1278ZM23.3306 34.4696C22.8704 34.4696 22.4973 34.0955 22.4973 33.6341C22.4973 33.1728 22.8704 32.7987 23.3306 32.7987C23.7907 32.7987 24.1638 33.1728 24.1638 33.6341C24.1638 34.0955 23.7907 34.4696 23.3306 34.4696Z" fill="#FFBB01"/>
<path d="M29.9965 33.6341C29.9953 32.7057 29.4826 31.8535 28.6632 31.4203C28.9358 30.5327 28.6966 29.5671 28.042 28.9103C27.3869 28.254 26.4239 28.0141 25.5386 28.2874C25.1049 27.4683 24.2558 26.9559 23.3306 26.9559C22.4054 26.9559 21.5563 27.4683 21.1226 28.2874C20.2373 28.0141 19.2743 28.254 18.6192 28.9103C17.9646 29.5671 17.7254 30.5327 17.998 31.4203C17.1806 31.8552 16.67 32.7065 16.67 33.6341C16.67 34.5618 17.1806 35.4135 17.998 35.848C17.7254 36.7336 17.9626 37.6975 18.6143 38.3543C18.7771 38.5171 18.9622 38.6549 19.1644 38.7639V49.5075C19.166 49.8449 19.3699 50.148 19.6811 50.276C19.9911 50.407 20.3496 50.3376 20.5892 50.1006L23.3306 47.3438L26.072 50.1006C26.229 50.2573 26.4422 50.3442 26.6635 50.3429C26.773 50.3458 26.8812 50.323 26.9801 50.276C27.2913 50.148 27.4951 49.8449 27.4968 49.5075V38.772C27.699 38.6631 27.8841 38.5252 28.0468 38.3629C28.6986 37.7057 28.9358 36.7422 28.6632 35.8565C29.4851 35.4217 29.9985 34.5659 29.9965 33.6341V33.6341ZM23.9222 45.5726C23.7659 45.4143 23.5527 45.3254 23.3306 45.3254C23.1084 45.3254 22.8953 45.4143 22.739 45.5726L20.8309 47.494V39.0563L21.1226 38.9809C21.5563 39.8004 22.4054 40.3124 23.3306 40.3124C24.2558 40.3124 25.1049 39.8004 25.5386 38.9809L25.8303 39.0563V47.494L23.9222 45.5726ZM27.4968 34.4696H27.3552C27.0159 34.468 26.7091 34.6727 26.5801 34.9877C26.452 35.3005 26.5244 35.6599 26.7636 35.8982L26.8637 35.9985C27.1867 36.3244 27.1867 36.8507 26.8637 37.1766C26.7718 37.2733 26.657 37.3451 26.5301 37.3855H26.4052C26.1428 37.4263 25.8767 37.3394 25.6887 37.1513L25.5886 37.051C25.3502 36.8103 24.9901 36.7377 24.6777 36.8678C24.3648 36.9979 24.1618 37.3051 24.1638 37.6445V37.8113C24.1638 38.2727 23.7907 38.6468 23.3306 38.6468C22.8704 38.6468 22.4974 38.2727 22.4974 37.8113V37.6694C22.499 37.3292 22.2947 37.0216 21.9806 36.8923C21.8802 36.8523 21.7723 36.8327 21.6641 36.8339C21.4428 36.8327 21.2296 36.92 21.0725 37.0763L20.9725 37.1766C20.7845 37.3647 20.5184 37.4516 20.256 37.4104H20.1311C20.0042 37.3704 19.8894 37.2986 19.7975 37.2015C19.4744 36.8756 19.4744 36.3493 19.7975 36.0234L19.9061 35.9234C20.1453 35.6848 20.2177 35.3254 20.0892 35.0125C19.9602 34.698 19.6538 34.4928 19.3145 34.4949H19.1644C18.7043 34.4949 18.3312 34.1208 18.3312 33.6594C18.3312 33.1977 18.7043 32.824 19.1644 32.824H19.306C19.6453 32.8256 19.9521 32.6204 20.081 32.3059C20.2092 31.993 20.1368 31.6337 19.8976 31.395L19.7975 31.2951C19.4708 30.9696 19.4691 30.4405 19.7934 30.1129C20.1181 29.7853 20.6458 29.7833 20.9725 30.1088L21.0725 30.2173C21.3102 30.4572 21.669 30.5298 21.9806 30.4009C22.2947 30.2716 22.499 29.9644 22.4974 29.6242V29.4569C22.4974 28.9956 22.8704 28.6215 23.3306 28.6215C23.7907 28.6215 24.1638 28.9956 24.1638 29.4569V29.5989C24.1622 29.9395 24.3664 30.2467 24.6805 30.376C24.9922 30.5045 25.351 30.4323 25.5886 30.192L25.6887 30.0921C26.013 29.7645 26.5411 29.7625 26.8678 30.0876C27.1945 30.4131 27.1961 30.9422 26.8718 31.2698L26.7636 31.3701C26.5244 31.6084 26.452 31.9682 26.5801 32.2806C26.7091 32.5956 27.0159 32.8003 27.3552 32.7987H27.4968C27.9569 32.7987 28.33 33.1728 28.33 33.6341C28.33 34.0955 27.9569 34.4696 27.4968 34.4696V34.4696Z" fill="#FFBB01"/>
</svg>
