<svg width="50" height="51" viewBox="0 0 50 51" fill="none" xmlns="http://www.w3.org/2000/svg">
<path d="M48.3277 36.4377V34.1317H49.1609C49.3908 34.1333 49.6109 34.0395 49.7692 33.8726C49.9107 33.714 49.9909 33.5092 49.9941 33.2962L48.5026 4.89129C48.3606 2.5922 46.459 0.800171 44.1615 0.800171C41.864 0.800171 39.9624 2.5922 39.8204 4.89129L38.3288 33.2962C38.3219 33.5239 38.4025 33.745 38.5538 33.9147C38.719 34.066 38.9383 34.1443 39.1621 34.1317H39.9953V36.4377L38.4204 39.604C38.3016 39.8402 38.3016 40.1193 38.4204 40.3559L43.4198 50.3811C43.4605 50.4733 43.5203 50.5557 43.5947 50.6234C43.692 50.7136 43.8092 50.7797 43.9365 50.8156H44.3946C44.5224 50.7797 44.6395 50.7136 44.7364 50.6234C44.8112 50.5557 44.8706 50.4733 44.9113 50.3811L49.9107 40.3559C50.0295 40.1193 50.0295 39.8402 49.9107 39.604L48.3277 36.4377ZM40.0368 32.4608L40.3871 25.7773H47.9359L48.3277 32.4608H40.0368ZM41.4868 4.93331C41.4868 3.45212 42.6842 2.25118 44.1615 2.25118C45.6388 2.25118 46.8362 3.45212 46.8362 4.93331L47.8443 24.1484H40.4787L40.5702 22.4775H45.2112C45.6717 22.4775 46.0444 22.1035 46.0444 21.6421C46.0444 21.1803 45.6717 20.8067 45.2112 20.8067H40.6536L41.4868 4.93331ZM46.6612 34.1317V35.8026H41.6618V34.1317H46.6612ZM44.9947 46.463V40.8152H45.828C46.2881 40.8152 46.6612 40.4411 46.6612 39.9797C46.6612 39.5184 46.2881 39.1443 45.828 39.1443H42.495C42.0349 39.1443 41.6618 39.5184 41.6618 39.9797C41.6618 40.4411 42.0349 40.8152 42.495 40.8152H43.3283V46.463L40.0954 39.9797L41.3453 37.4734H46.9777L48.2276 39.9797L44.9947 46.463Z" fill="#31e89f"/>
<path d="M28.3301 11.575C28.7902 11.575 29.1633 11.2009 29.1633 10.7396C29.1633 10.2782 28.7902 9.90414 28.3301 9.90414H6.66594C6.20579 9.90414 5.8327 10.2782 5.8327 10.7396V14.0813C5.8327 14.5427 6.20579 14.9168 6.66594 14.9168H28.3301C28.7902 14.9168 29.1633 14.5427 29.1633 14.0813C29.1633 13.62 28.7902 13.2459 28.3301 13.2459H7.49917V11.575H28.3301Z" fill="#31C6E8"/>
<path d="M29.1633 19.094C29.1633 18.6326 28.7902 18.2585 28.3301 18.2585H9.99889C9.53873 18.2585 9.16565 18.6326 9.16565 19.094C9.16565 19.5553 9.53873 19.9294 9.99889 19.9294H28.3301C28.7902 19.9294 29.1633 19.5553 29.1633 19.094Z" fill="#31C6E8"/>
<path d="M4.99945 23.2711C4.99945 23.7325 5.37254 24.1066 5.83269 24.1066H19.1645C19.6246 24.1066 19.9977 23.7325 19.9977 23.2711C19.9977 22.8097 19.6246 22.4357 19.1645 22.4357H5.83269C5.37254 22.4357 4.99945 22.8097 4.99945 23.2711Z" fill="#31C6E8"/>
<path d="M24.1639 22.4357C23.7038 22.4357 23.3307 22.8097 23.3307 23.2711C23.3307 23.7325 23.7038 24.1066 24.1639 24.1066H27.4969C27.957 24.1066 28.3301 23.7325 28.3301 23.2711C28.3301 22.8097 27.957 22.4357 27.4969 22.4357H24.1639Z" fill="#31C6E8"/>
<path d="M16.6648 27.4483C16.6648 26.9869 16.2917 26.6129 15.8315 26.6129H5.83269C5.37254 26.6129 4.99945 26.9869 4.99945 27.4483C4.99945 27.9097 5.37254 28.2837 5.83269 28.2837H15.8315C16.2917 28.2837 16.6648 27.9097 16.6648 27.4483Z" fill="#31C6E8"/>
<path d="M15.8315 31.6256C15.8315 31.1642 15.4584 30.7902 14.9983 30.7902H5.83269C5.37254 30.7902 4.99945 31.1642 4.99945 31.6256C4.99945 32.087 5.37254 32.461 5.83269 32.461H14.9983C15.4584 32.461 15.8315 32.087 15.8315 31.6256Z" fill="#31C6E8"/>
<path d="M5.83269 34.9673C5.37254 34.9673 4.99945 35.3414 4.99945 35.8028C4.99945 36.2641 5.37254 36.6382 5.83269 36.6382H11.6653C12.1255 36.6382 12.4986 36.2641 12.4986 35.8028C12.4986 35.3414 12.1255 34.9673 11.6653 34.9673H5.83269Z" fill="#31C6E8"/>
<path d="M32.4962 0.714294H2.49971C1.11925 0.714294 0 1.83651 0 3.22061V41.6508C0 43.0349 1.11925 44.1571 2.49971 44.1571H16.6647C17.1249 44.1571 17.498 43.7831 17.498 43.3217C17.498 42.8603 17.1249 42.4863 16.6647 42.4863H2.49971C2.03956 42.4863 1.66647 42.1122 1.66647 41.6508V8.23325H33.3295V41.6508C33.3295 42.1122 32.9564 42.4863 32.4962 42.4863H29.9965C29.5364 42.4863 29.1633 42.8603 29.1633 43.3217C29.1633 43.7831 29.5364 44.1571 29.9965 44.1571H32.4962C33.8767 44.1571 34.9959 43.0349 34.9959 41.6508V3.22061C34.9959 1.83651 33.8767 0.714294 32.4962 0.714294ZM1.66647 6.56237V3.22061C1.66647 2.75924 2.03956 2.38517 2.49971 2.38517H32.4962C32.9564 2.38517 33.3295 2.75924 33.3295 3.22061V6.56237H1.66647Z" fill="#31C6E8"/>
<path d="M23.3306 31.6255C21.9501 31.6255 20.8309 32.7477 20.8309 34.1318C20.8309 35.5159 21.9501 36.6381 23.3306 36.6381C24.711 36.6381 25.8303 35.5159 25.8303 34.1318C25.8303 32.7477 24.711 31.6255 23.3306 31.6255ZM23.3306 34.9673C22.8704 34.9673 22.4973 34.5932 22.4973 34.1318C22.4973 33.6704 22.8704 33.2964 23.3306 33.2964C23.7907 33.2964 24.1638 33.6704 24.1638 34.1318C24.1638 34.5932 23.7907 34.9673 23.3306 34.9673Z" fill="#31C6E8"/>
<path d="M29.9965 34.1318C29.9953 33.2034 29.4826 32.3512 28.6632 31.918C28.9358 31.0303 28.6966 30.0648 28.042 29.408C27.3869 28.7516 26.4239 28.5118 25.5386 28.7851C25.1049 27.966 24.2558 27.4536 23.3306 27.4536C22.4054 27.4536 21.5563 27.966 21.1226 28.7851C20.2373 28.5118 19.2743 28.7516 18.6192 29.408C17.9646 30.0648 17.7254 31.0303 17.998 31.918C17.1806 32.3528 16.67 33.2042 16.67 34.1318C16.67 35.0595 17.1806 35.9112 17.998 36.3457C17.7254 37.2313 17.9626 38.1952 18.6143 38.852C18.7771 39.0147 18.9622 39.1526 19.1644 39.2615V50.0052C19.166 50.3425 19.3699 50.6456 19.6811 50.7737C19.9911 50.9047 20.3496 50.8353 20.5892 50.5983L23.3306 47.8415L26.072 50.5983C26.229 50.755 26.4422 50.8418 26.6635 50.8406C26.773 50.8435 26.8812 50.8206 26.9801 50.7737C27.2913 50.6456 27.4951 50.3425 27.4968 50.0052V39.2697C27.699 39.1608 27.8841 39.0229 28.0468 38.8605C28.6986 38.2034 28.9358 37.2398 28.6632 36.3542C29.4851 35.9194 29.9985 35.0635 29.9965 34.1318ZM23.9222 46.0703C23.7659 45.912 23.5527 45.8231 23.3306 45.8231C23.1084 45.8231 22.8953 45.912 22.739 46.0703L20.8309 47.9916V39.554L21.1226 39.4786C21.5563 40.2981 22.4054 40.81 23.3306 40.81C24.2558 40.81 25.1049 40.2981 25.5386 39.4786L25.8303 39.554V47.9916L23.9222 46.0703ZM27.4968 34.9673H27.3552C27.0159 34.9656 26.7091 35.1704 26.5801 35.4853C26.452 35.7982 26.5244 36.1576 26.7636 36.3958L26.8637 36.4962C27.1867 36.8221 27.1867 37.3484 26.8637 37.6743C26.7718 37.771 26.657 37.8428 26.5301 37.8831H26.4052C26.1428 37.9239 25.8767 37.8371 25.6887 37.649L25.5886 37.5486C25.3502 37.308 24.9901 37.2354 24.6777 37.3655C24.3648 37.4956 24.1618 37.8028 24.1638 38.1422V38.309C24.1638 38.7704 23.7907 39.1445 23.3306 39.1445C22.8704 39.1445 22.4974 38.7704 22.4974 38.309V38.1671C22.499 37.8269 22.2947 37.5193 21.9806 37.39C21.8802 37.35 21.7723 37.3304 21.6641 37.3316C21.4428 37.3304 21.2296 37.4177 21.0725 37.5739L20.9725 37.6743C20.7845 37.8623 20.5184 37.9492 20.256 37.908H20.1311C20.0041 37.8681 19.8894 37.7963 19.7975 37.6992C19.4744 37.3732 19.4744 36.847 19.7975 36.5211L19.9061 36.4211C20.1453 36.1825 20.2177 35.8231 20.0892 35.5102C19.9602 35.1957 19.6538 34.9905 19.3145 34.9926H19.1644C18.7043 34.9926 18.3312 34.6185 18.3312 34.1571C18.3312 33.6953 18.7043 33.3217 19.1644 33.3217H19.306C19.6453 33.3233 19.9521 33.1181 20.081 32.8036C20.2092 32.4907 20.1368 32.1313 19.8976 31.8927L19.7975 31.7928C19.4708 31.4672 19.4691 30.9381 19.7934 30.6106C20.1181 30.283 20.6458 30.281 20.9725 30.6065L21.0725 30.715C21.3102 30.9549 21.669 31.0275 21.9806 30.8986C22.2947 30.7693 22.499 30.4621 22.4974 30.1219V29.9546C22.4974 29.4933 22.8704 29.1192 23.3306 29.1192C23.7907 29.1192 24.1638 29.4933 24.1638 29.9546V30.0966C24.1622 30.4372 24.3664 30.7444 24.6805 30.8737C24.9922 31.0022 25.351 30.93 25.5886 30.6897L25.6887 30.5898C26.013 30.2622 26.5411 30.2602 26.8678 30.5853C27.1945 30.9108 27.1961 31.4399 26.8718 31.7675L26.7636 31.8678C26.5244 32.1061 26.452 32.4658 26.5801 32.7783C26.7091 33.0932 27.0159 33.298 27.3552 33.2964H27.4968C27.9569 33.2964 28.33 33.6705 28.33 34.1318C28.33 34.5932 27.9569 34.9673 27.4968 34.9673Z" fill="#31e89f"/>
</svg>
