<svg width="50" height="50" viewBox="0 0 50 50" fill="none" xmlns="http://www.w3.org/2000/svg">
<path d="M49.1667 24.4441H30.1082C29.648 24.4441 29.2749 24.8182 29.2749 25.2796C29.2749 25.741 29.648 26.1151 30.1082 26.1151H48.3333V34.4705H44.1667V28.6217C44.1667 28.1603 43.7935 27.7862 43.3333 27.7862C42.8731 27.7862 42.5 28.1603 42.5 28.6217V34.4705H20V26.1151H25C25.4602 26.1151 25.8333 25.741 25.8333 25.2796C25.8333 24.8182 25.4602 24.4441 25 24.4441H19.1667C18.7065 24.4441 18.3333 24.8182 18.3333 25.2796V35.306C18.3333 35.7675 18.7065 36.1416 19.1667 36.1416H26.6667V37.8126H19.1667C18.7065 37.8126 18.3333 38.1868 18.3333 38.6482V44.4969H15.8333V43.6614C15.8333 43.2 15.4602 42.8259 15 42.8259H12.5V38.6482C12.5 38.1868 12.1269 37.8126 11.6667 37.8126C11.2065 37.8126 10.8333 38.1868 10.8333 38.6482V43.6614C10.8333 44.1228 11.2065 44.4969 11.6667 44.4969H14.1667V46.168H5.83333V44.4969H8.33333C8.79354 44.4969 9.16667 44.1228 9.16667 43.6614V38.6482C9.16667 38.1868 8.79354 37.8126 8.33333 37.8126C7.87313 37.8126 7.5 38.1868 7.5 38.6482V42.8259H5C4.53979 42.8259 4.16667 43.2 4.16667 43.6614V44.4969H0.833333C0.373128 44.4969 0 44.8711 0 45.3325C0 45.7939 0.373128 46.168 0.833333 46.168H4.16667V47.0035C4.16667 47.465 4.53979 47.8391 5 47.8391H15C15.4602 47.8391 15.8333 47.465 15.8333 47.0035V46.168H18.3333V48.6746C18.3333 49.136 18.7065 49.5102 19.1667 49.5102H49.1667C49.6269 49.5102 50 49.136 50 48.6746V38.6482C50 38.1868 49.6269 37.8126 49.1667 37.8126H41.6667V36.1416H49.1667C49.6269 36.1416 50 35.7675 50 35.306V25.2796C50 24.8182 49.6269 24.4441 49.1667 24.4441ZM48.3333 47.8391H20V39.4837H42.5V45.3325C42.5 45.7939 42.8731 46.168 43.3333 46.168C43.7935 46.168 44.1667 45.7939 44.1667 45.3325V39.4837H48.3333V47.8391ZM40 37.8126H28.3333V36.1416H40V37.8126Z" fill="#FFBB01"/>
<path d="M24.9999 27.7862C23.6193 27.7862 22.4999 28.9085 22.4999 30.2928C22.4999 31.6775 23.6193 32.7994 24.9999 32.7994C26.3805 32.7994 27.4999 31.6775 27.4999 30.2928C27.4999 28.9085 26.3805 27.7862 24.9999 27.7862ZM24.9999 31.1283C24.5397 31.1283 24.1665 30.7542 24.1665 30.2928C24.1665 29.8314 24.5397 29.4573 24.9999 29.4573C25.4601 29.4573 25.8332 29.8314 25.8332 30.2928C25.8332 30.7542 25.4601 31.1283 24.9999 31.1283Z" fill="#FFBB01"/>
<path d="M30.0001 32.7994C30.4603 32.7994 30.8334 32.4253 30.8334 31.9639V28.6217C30.8334 28.1603 30.4603 27.7862 30.0001 27.7862C29.5399 27.7862 29.1667 28.1603 29.1667 28.6217V31.9639C29.1667 32.4253 29.5399 32.7994 30.0001 32.7994Z" fill="#FFBB01"/>
<path d="M34.1667 31.9639V28.6217C34.1667 28.1603 33.7935 27.7862 33.3333 27.7862C32.8731 27.7862 32.5 28.1603 32.5 28.6217V31.9639C32.5 32.4253 32.8731 32.7994 33.3333 32.7994C33.7935 32.7994 34.1667 32.4253 34.1667 31.9639Z" fill="#FFBB01"/>
<path d="M37.4999 31.9639V28.6217C37.4999 28.1603 37.1268 27.7862 36.6666 27.7862C36.2064 27.7862 35.8333 28.1603 35.8333 28.6217V31.9639C35.8333 32.4253 36.2064 32.7994 36.6666 32.7994C37.1268 32.7994 37.4999 32.4253 37.4999 31.9639Z" fill="#FFBB01"/>
<path d="M40.8332 31.9639V28.6217C40.8332 28.1603 40.46 27.7862 39.9998 27.7862C39.5396 27.7862 39.1665 28.1603 39.1665 28.6217V31.9639C39.1665 32.4253 39.5396 32.7994 39.9998 32.7994C40.46 32.7994 40.8332 32.4253 40.8332 31.9639Z" fill="#FFBB01"/>
<path d="M26.6665 42.8259C26.2063 42.8259 25.8332 43.2 25.8332 43.6614C25.8332 44.1228 25.4601 44.497 24.9999 44.497C24.5397 44.497 24.1665 44.1228 24.1665 43.6614C24.1665 43.2 24.5397 42.8259 24.9999 42.8259C25.4601 42.8259 25.8332 42.4518 25.8332 41.9904C25.8332 41.5289 25.4601 41.1548 24.9999 41.1548C23.6193 41.1548 22.4999 42.2772 22.4999 43.6614C22.4999 45.0461 23.6193 46.168 24.9999 46.168C26.3805 46.168 27.4999 45.0461 27.4999 43.6614C27.4999 43.2 27.1267 42.8259 26.6665 42.8259Z" fill="#FFBB01"/>
<path d="M30.0001 41.1548C29.5399 41.1548 29.1667 41.5289 29.1667 41.9904V45.3325C29.1667 45.7939 29.5399 46.168 30.0001 46.168C30.4603 46.168 30.8334 45.7939 30.8334 45.3325V41.9904C30.8334 41.5289 30.4603 41.1548 30.0001 41.1548Z" fill="#FFBB01"/>
<path d="M33.3333 41.1548C32.8731 41.1548 32.5 41.5289 32.5 41.9904V45.3325C32.5 45.7939 32.8731 46.168 33.3333 46.168C33.7935 46.168 34.1667 45.7939 34.1667 45.3325V41.9904C34.1667 41.5289 33.7935 41.1548 33.3333 41.1548Z" fill="#FFBB01"/>
<path d="M36.6666 41.1548C36.2064 41.1548 35.8333 41.5289 35.8333 41.9904V45.3325C35.8333 45.7939 36.2064 46.168 36.6666 46.168C37.1268 46.168 37.4999 45.7939 37.4999 45.3325V41.9904C37.4999 41.5289 37.1268 41.1548 36.6666 41.1548Z" fill="#FFBB01"/>
<path d="M39.9998 41.1548C39.5396 41.1548 39.1665 41.5289 39.1665 41.9904V45.3325C39.1665 45.7939 39.5396 46.168 39.9998 46.168C40.46 46.168 40.8332 45.7939 40.8332 45.3325V41.9904C40.8332 41.5289 40.46 41.1548 39.9998 41.1548Z" fill="#FFBB01"/>
<path d="M6.31676 30.1342C6.42703 30.1831 6.54625 30.2084 6.66669 30.2093C7.05284 30.2035 7.38406 29.9322 7.46747 29.5545C7.55048 29.1763 7.36412 28.7907 7.01663 28.6218C3.09939 26.8218 0.961124 22.5295 1.8795 18.3082C2.79747 14.0868 6.52428 11.0768 10.8334 11.0756C11.6789 11.0751 12.5204 11.1931 13.3334 11.4264C13.7484 11.5468 14.1858 11.3289 14.3417 10.9254C16.4388 5.47159 21.6704 1.87731 27.5 1.88465C34.1398 1.91729 39.8771 6.54375 41.3334 13.0391C41.4079 13.3741 41.6789 13.6291 42.0166 13.6825C45.6535 14.2651 48.3305 17.4094 48.3334 21.102C48.3297 21.3451 48.313 21.5879 48.2833 21.829C48.2528 22.0534 48.3146 22.281 48.4542 22.4589C48.5942 22.6368 48.8001 22.7502 49.0251 22.7731C49.2477 22.7963 49.4702 22.729 49.6424 22.5858C49.8149 22.443 49.9227 22.2366 49.9418 22.013C49.9785 21.7107 49.998 21.4068 50 21.102C50.0171 16.7938 47.0309 13.0583 42.8333 12.1367C41.0034 5.14031 34.714 0.249484 27.5 0.213582C21.2403 0.193591 15.5636 3.89394 13.0416 9.63866C12.3161 9.48241 11.5755 9.40367 10.8334 9.40448C5.74547 9.40979 1.34687 12.9645 0.260847 17.9483C-0.824765 22.9322 1.69436 28.0021 6.31676 30.1342V30.1342Z" fill="#FFBB01"/>
<path d="M13.3333 30.8028C13.4021 30.8146 13.4729 30.8146 13.5417 30.8028C14.4918 30.5605 15.4032 30.1863 16.25 29.6915C16.4416 29.5797 16.5808 29.3961 16.637 29.1815C16.6931 28.9665 16.6618 28.7384 16.5499 28.5467C16.3184 28.1518 15.813 28.0175 15.4167 28.246C14.6989 28.663 13.9278 28.9808 13.125 29.1901C12.6648 29.2476 12.3385 29.6686 12.3958 30.13C12.4532 30.5915 12.8731 30.9187 13.3333 30.8611V30.8028Z" fill="#FFBB01"/>
<path d="M10.0001 36.1416C10.4603 36.1416 10.8335 35.7674 10.8335 35.306V22.1883L12.6417 24.9038C12.7951 25.1372 13.0547 25.2784 13.3335 25.2796C13.4974 25.2816 13.6578 25.2318 13.7916 25.1376C14.1721 24.8826 14.2762 24.3682 14.0252 23.9847L10.6919 18.9714C10.6919 18.9714 10.6919 18.9714 10.6499 18.9294C10.4921 18.732 10.2528 18.6169 10.0001 18.6169C9.74744 18.6169 9.50818 18.732 9.3503 18.9294C9.3503 18.9294 9.3503 18.9294 9.30839 18.9714L5.97506 23.9847C5.77161 24.3649 5.89043 24.8377 6.24931 25.076C6.60779 25.3143 7.08834 25.2396 7.35852 24.9038L9.16679 22.1883V35.306C9.16679 35.7674 9.53992 36.1416 10.0001 36.1416Z" fill="#FFBB01"/>
<path d="M31.2914 15.3952C30.9094 15.1435 30.3959 15.2479 30.1415 15.6294L28.3333 18.3448V8.5689C28.3333 8.10748 27.9602 7.73337 27.4999 7.73337C27.0397 7.73337 26.6666 8.10748 26.6666 8.5689V18.3448L24.8584 15.6294C24.7086 15.3499 24.4144 15.1794 24.0983 15.1891C23.7821 15.1989 23.4989 15.387 23.3667 15.675C23.2348 15.9631 23.2767 16.3013 23.4749 16.5485L26.8082 21.5617C26.9632 21.7927 27.2224 21.931 27.4999 21.931C27.7775 21.931 28.0366 21.7927 28.1917 21.5617L31.525 16.5485C31.7761 16.165 31.6719 15.6502 31.2914 15.3952Z" fill="#FFBB01"/>
</svg>
