<svg width="50" height="51" viewBox="0 0 50 51" fill="none" xmlns="http://www.w3.org/2000/svg">
<path d="M49.1667 24.9417H30.1082C29.648 24.9417 29.2749 25.3159 29.2749 25.7773C29.2749 26.2387 29.648 26.6128 30.1082 26.6128H48.3333V34.9682H44.1667V29.1194C44.1667 28.658 43.7935 28.2839 43.3333 28.2839C42.8731 28.2839 42.5 28.658 42.5 29.1194V34.9682H20V26.6128H25C25.4602 26.6128 25.8333 26.2387 25.8333 25.7773C25.8333 25.3159 25.4602 24.9417 25 24.9417H19.1667C18.7065 24.9417 18.3333 25.3159 18.3333 25.7773V35.8037C18.3333 36.2651 18.7065 36.6393 19.1667 36.6393H26.6667V38.3103H19.1667C18.7065 38.3103 18.3333 38.6844 18.3333 39.1459V44.9946H15.8333V44.1591C15.8333 43.6977 15.4602 43.3235 15 43.3235H12.5V39.1459C12.5 38.6844 12.1269 38.3103 11.6667 38.3103C11.2065 38.3103 10.8333 38.6844 10.8333 39.1459V44.1591C10.8333 44.6205 11.2065 44.9946 11.6667 44.9946H14.1667V46.6657H5.83333V44.9946H8.33333C8.79354 44.9946 9.16667 44.6205 9.16667 44.1591V39.1459C9.16667 38.6844 8.79354 38.3103 8.33333 38.3103C7.87313 38.3103 7.5 38.6844 7.5 39.1459V43.3235H5C4.53979 43.3235 4.16667 43.6977 4.16667 44.1591V44.9946H0.833333C0.373128 44.9946 0 45.3687 0 45.8302C0 46.2916 0.373128 46.6657 0.833333 46.6657H4.16667V47.5012C4.16667 47.9626 4.53979 48.3368 5 48.3368H15C15.4602 48.3368 15.8333 47.9626 15.8333 47.5012V46.6657H18.3333V49.1723C18.3333 49.6337 18.7065 50.0078 19.1667 50.0078H49.1667C49.6269 50.0078 50 49.6337 50 49.1723V39.1459C50 38.6844 49.6269 38.3103 49.1667 38.3103H41.6667V36.6393H49.1667C49.6269 36.6393 50 36.2651 50 35.8037V25.7773C50 25.3159 49.6269 24.9417 49.1667 24.9417ZM48.3333 48.3368H20V39.9814H42.5V45.8302C42.5 46.2916 42.8731 46.6657 43.3333 46.6657C43.7935 46.6657 44.1667 46.2916 44.1667 45.8302V39.9814H48.3333V48.3368ZM40 38.3103H28.3333V36.6393H40V38.3103Z" fill="#31C6E8"/>
<path d="M24.9999 28.2839C23.6193 28.2839 22.4999 29.4062 22.4999 30.7905C22.4999 32.1752 23.6193 33.2971 24.9999 33.2971C26.3805 33.2971 27.4999 32.1752 27.4999 30.7905C27.4999 29.4062 26.3805 28.2839 24.9999 28.2839ZM24.9999 31.626C24.5397 31.626 24.1665 31.2519 24.1665 30.7905C24.1665 30.3291 24.5397 29.9549 24.9999 29.9549C25.4601 29.9549 25.8332 30.3291 25.8332 30.7905C25.8332 31.2519 25.4601 31.626 24.9999 31.626Z" fill="#31C6E8"/>
<path d="M30.0001 33.2971C30.4603 33.2971 30.8334 32.923 30.8334 32.4616V29.1194C30.8334 28.658 30.4603 28.2839 30.0001 28.2839C29.5399 28.2839 29.1667 28.658 29.1667 29.1194V32.4616C29.1667 32.923 29.5399 33.2971 30.0001 33.2971Z" fill="#31C6E8"/>
<path d="M34.1667 32.4616V29.1194C34.1667 28.658 33.7935 28.2839 33.3333 28.2839C32.8731 28.2839 32.5 28.658 32.5 29.1194V32.4616C32.5 32.923 32.8731 33.2971 33.3333 33.2971C33.7935 33.2971 34.1667 32.923 34.1667 32.4616Z" fill="#31C6E8"/>
<path d="M37.4999 32.4616V29.1194C37.4999 28.658 37.1268 28.2839 36.6666 28.2839C36.2064 28.2839 35.8333 28.658 35.8333 29.1194V32.4616C35.8333 32.923 36.2064 33.2971 36.6666 33.2971C37.1268 33.2971 37.4999 32.923 37.4999 32.4616Z" fill="#31C6E8"/>
<path d="M40.8332 32.4616V29.1194C40.8332 28.658 40.46 28.2839 39.9998 28.2839C39.5396 28.2839 39.1665 28.658 39.1665 29.1194V32.4616C39.1665 32.923 39.5396 33.2971 39.9998 33.2971C40.46 33.2971 40.8332 32.923 40.8332 32.4616Z" fill="#31C6E8"/>
<path d="M26.6665 43.3236C26.2063 43.3236 25.8332 43.6977 25.8332 44.1591C25.8332 44.6205 25.4601 44.9946 24.9999 44.9946C24.5397 44.9946 24.1665 44.6205 24.1665 44.1591C24.1665 43.6977 24.5397 43.3236 24.9999 43.3236C25.4601 43.3236 25.8332 42.9495 25.8332 42.488C25.8332 42.0266 25.4601 41.6525 24.9999 41.6525C23.6193 41.6525 22.4999 42.7748 22.4999 44.1591C22.4999 45.5438 23.6193 46.6657 24.9999 46.6657C26.3805 46.6657 27.4999 45.5438 27.4999 44.1591C27.4999 43.6977 27.1267 43.3236 26.6665 43.3236Z" fill="#31C6E8"/>
<path d="M30.0001 41.6525C29.5399 41.6525 29.1667 42.0266 29.1667 42.488V45.8302C29.1667 46.2916 29.5399 46.6657 30.0001 46.6657C30.4603 46.6657 30.8334 46.2916 30.8334 45.8302V42.488C30.8334 42.0266 30.4603 41.6525 30.0001 41.6525Z" fill="#31C6E8"/>
<path d="M33.3333 41.6525C32.8731 41.6525 32.5 42.0266 32.5 42.488V45.8302C32.5 46.2916 32.8731 46.6657 33.3333 46.6657C33.7935 46.6657 34.1667 46.2916 34.1667 45.8302V42.488C34.1667 42.0266 33.7935 41.6525 33.3333 41.6525Z" fill="#31C6E8"/>
<path d="M36.6666 41.6525C36.2064 41.6525 35.8333 42.0266 35.8333 42.488V45.8302C35.8333 46.2916 36.2064 46.6657 36.6666 46.6657C37.1268 46.6657 37.4999 46.2916 37.4999 45.8302V42.488C37.4999 42.0266 37.1268 41.6525 36.6666 41.6525Z" fill="#31C6E8"/>
<path d="M39.9998 41.6525C39.5396 41.6525 39.1665 42.0266 39.1665 42.488V45.8302C39.1665 46.2916 39.5396 46.6657 39.9998 46.6657C40.46 46.6657 40.8332 46.2916 40.8332 45.8302V42.488C40.8332 42.0266 40.46 41.6525 39.9998 41.6525Z" fill="#31C6E8"/>
<path d="M6.31676 30.6319C6.42703 30.6808 6.54625 30.7061 6.66669 30.7069C7.05284 30.7012 7.38406 30.4299 7.46747 30.0521C7.55048 29.6739 7.36412 29.2884 7.01663 29.1195C3.09939 27.3195 0.961124 23.0272 1.8795 18.8058C2.79747 14.5845 6.52428 11.5745 10.8334 11.5732C11.6789 11.5728 12.5204 11.6907 13.3334 11.9241C13.7484 12.0444 14.1858 11.8266 14.3417 11.4231C16.4388 5.96927 21.6704 2.37499 27.5 2.38234C34.1398 2.41497 39.8771 7.04143 41.3334 13.5368C41.4079 13.8718 41.6789 14.1268 42.0166 14.1802C45.6535 14.7628 48.3305 17.9071 48.3334 21.5997C48.3297 21.8428 48.313 22.0856 48.2833 22.3267C48.2528 22.5511 48.3146 22.7787 48.4542 22.9566C48.5942 23.1345 48.8001 23.2479 49.0251 23.2707C49.2477 23.294 49.4702 23.2267 49.6424 23.0835C49.8149 22.9407 49.9227 22.7343 49.9418 22.5107C49.9785 22.2084 49.998 21.9044 50 21.5997C50.0171 17.2914 47.0309 13.556 42.8333 12.6344C41.0034 5.63799 34.714 0.747164 27.5 0.711262C21.2403 0.691271 15.5636 4.39162 13.0416 10.1363C12.3161 9.98009 11.5755 9.90135 10.8334 9.90216C5.74547 9.90747 1.34687 13.4622 0.260847 18.446C-0.824765 23.4299 1.69436 28.4998 6.31676 30.6319Z" fill="#31e89f"/>
<path d="M13.3333 31.3005C13.4021 31.3123 13.4729 31.3123 13.5417 31.3005C14.4918 31.0581 15.4032 30.684 16.25 30.1891C16.4416 30.0774 16.5808 29.8938 16.637 29.6792C16.6931 29.4642 16.6618 29.2361 16.5499 29.0444C16.3184 28.6494 15.813 28.5152 15.4167 28.7437C14.6989 29.1606 13.9278 29.4785 13.125 29.6877C12.6648 29.7453 12.3385 30.1663 12.3958 30.6277C12.4532 31.0892 12.8731 31.4163 13.3333 31.3588V31.3005Z" fill="#31C6E8"/>
<path d="M10.0001 36.6392C10.4603 36.6392 10.8335 36.2651 10.8335 35.8037V22.686L12.6417 25.4015C12.7951 25.6349 13.0547 25.776 13.3335 25.7773C13.4974 25.7793 13.6578 25.7295 13.7916 25.6353C14.1721 25.3803 14.2762 24.8658 14.0252 24.4823L10.6919 19.4691C10.6919 19.4691 10.6919 19.4691 10.6499 19.4271C10.4921 19.2296 10.2528 19.1146 10.0001 19.1146C9.74744 19.1146 9.50818 19.2296 9.3503 19.4271C9.3503 19.4271 9.3503 19.4271 9.30839 19.4691L5.97506 24.4823C5.77161 24.8626 5.89043 25.3354 6.24931 25.5737C6.60779 25.8119 7.08834 25.7373 7.35852 25.4015L9.16679 22.686V35.8037C9.16679 36.2651 9.53992 36.6392 10.0001 36.6392Z" fill="#31e89f"/>
<path d="M31.2914 15.8929C30.9094 15.6411 30.3959 15.7456 30.1415 16.127L28.3333 18.8425V9.06659C28.3333 8.60516 27.9602 8.23105 27.4999 8.23105C27.0397 8.23105 26.6666 8.60516 26.6666 9.06659V18.8425L24.8584 16.127C24.7086 15.8476 24.4144 15.677 24.0983 15.6868C23.7821 15.6966 23.4989 15.8847 23.3667 16.1727C23.2348 16.4608 23.2767 16.799 23.4749 17.0462L26.8082 22.0594C26.9632 22.2903 27.2224 22.4286 27.4999 22.4286C27.7775 22.4286 28.0366 22.2903 28.1917 22.0594L31.525 17.0462C31.7761 16.6627 31.6719 16.1478 31.2914 15.8929Z" fill="#31e89f"/>
</svg>
